<?xml version="1.0" standalone="no"?>
<!DOCTYPE svg PUBLIC "-//W3C//DTD SVG 20010904//EN"
 "http://www.w3.org/TR/2001/REC-SVG-20010904/DTD/svg10.dtd">
<svg version="1.0" xmlns="http://www.w3.org/2000/svg"
 width="416.000000pt" height="248.000000pt" viewBox="0 0 416.000000 248.000000"
 preserveAspectRatio="xMidYMid meet">
<metadata>
Created by potrace 1.16, written by Peter Selinger 2001-2019
</metadata>
<g transform="translate(0.000000,248.000000) scale(0.100000,-0.100000)"
fill="currentColor" stroke="none">
<path d="M2013 2470 c-62 -13 -114 -43 -162 -95 -64 -69 -85 -124 -86 -220 0
-131 55 -219 176 -281 37 -18 50 -30 46 -42 -2 -9 -51 -179 -107 -377 -56
-198 -105 -366 -109 -373 -4 -7 -41 46 -94 135 -47 82 -140 238 -206 347
l-120 200 49 53 c64 69 84 130 78 232 -7 122 -69 216 -176 268 -48 23 -70 28
-137 28 -102 0 -166 -27 -230 -96 -66 -70 -88 -127 -89 -220 0 -97 32 -167
105 -233 51 -46 147 -86 205 -86 l24 0 0 -375 c0 -206 -2 -375 -5 -375 -3 0
-63 51 -133 113 -70 61 -203 175 -294 252 l-166 140 27 50 c23 44 26 61 26
150 0 79 -4 107 -19 135 -62 116 -161 180 -282 182 -93 2 -161 -22 -224 -79
-96 -86 -131 -206 -95 -328 44 -154 175 -246 329 -232 34 3 70 9 81 12 18 5
25 -8 66 -112 25 -65 103 -261 174 -435 l128 -317 66 33 c162 82 459 144 836
176 155 13 586 13 751 0 371 -29 729 -105 873 -185 24 -14 48 -22 52 -18 6 7
66 156 321 811 l21 53 41 -8 c23 -4 71 -8 108 -7 268 4 401 351 209 543 -51
51 -103 78 -177 90 -154 24 -302 -58 -354 -197 -31 -80 -26 -197 11 -268 l26
-50 -131 -111 c-72 -62 -203 -175 -291 -252 -88 -77 -164 -140 -168 -141 -5 0
-7 167 -5 370 3 402 1 390 59 390 95 0 220 98 255 200 29 84 25 182 -9 253
-73 147 -238 215 -397 162 -75 -25 -159 -108 -188 -188 -45 -118 -19 -248 64
-332 25 -25 44 -48 42 -53 -2 -4 -69 -117 -149 -252 -80 -135 -172 -289 -204
-344 -40 -68 -60 -94 -65 -85 -5 8 -25 75 -45 149 -20 74 -68 240 -106 368
-38 128 -69 237 -69 241 0 5 24 21 54 35 214 105 236 416 39 548 -42 29 -139
59 -183 57 -14 -1 -44 -5 -67 -9z"/>
<path d="M1850 559 c-501 -21 -901 -109 -994 -219 -36 -44 -36 -97 2 -135 125
-127 567 -199 1217 -199 541 0 932 49 1137 141 97 43 140 113 108 174 -46 86
-334 175 -690 214 -121 13 -562 38 -595 33 -5 0 -89 -4 -185 -9z m472 -159
c333 -18 640 -61 743 -104 36 -16 38 -18 21 -28 -134 -76 -877 -130 -1371 -99
-286 18 -533 53 -630 91 -28 11 -29 12 -12 25 44 32 341 86 572 104 274 22
422 24 677 11z"/>
</g>
</svg>
