<?xml version="1.0" standalone="no"?>
<!DOCTYPE svg PUBLIC "-//W3C//DTD SVG 20010904//EN"
 "http://www.w3.org/TR/2001/REC-SVG-20010904/DTD/svg10.dtd">
<svg version="1.0" xmlns="http://www.w3.org/2000/svg"
 width="411.000000pt" height="352.000000pt" viewBox="0 0 411.000000 352.000000"
 preserveAspectRatio="xMidYMid meet">
<metadata>
Created by potrace 1.16, written by Peter Selinger 2001-2019
</metadata>
<g transform="translate(0.000000,352.000000) scale(0.100000,-0.100000)"
fill="currentColor" stroke="none">
<path d="M2008 3504 c-42 -22 -68 -82 -68 -157 0 -62 27 -164 51 -194 14 -16
14 -15 -28 -37 -18 -9 -51 -35 -73 -58 -37 -39 -41 -40 -57 -25 -31 27 -165
86 -222 97 -178 33 -329 -16 -576 -190 -204 -144 -263 -168 -322 -131 -47 30
-58 92 -18 107 9 4 25 -2 36 -12 26 -24 53 -8 57 33 2 23 -3 36 -24 52 -50 39
-129 19 -160 -42 -39 -74 -7 -171 70 -212 25 -14 34 -25 31 -36 -5 -16 -174
-368 -441 -921 l-129 -267 -46 -16 c-56 -19 -89 -48 -89 -78 0 -12 15 -54 34
-93 72 -150 236 -267 456 -324 106 -28 326 -38 454 -21 261 35 475 162 561
333 55 111 45 146 -49 178 l-44 15 -152 305 c-166 332 -353 713 -405 826 l-33
71 36 18 c21 9 85 46 144 82 196 117 305 155 448 156 132 0 223 -32 346 -123
38 -28 53 -48 63 -79 16 -55 66 -110 120 -134 l44 -19 -42 -35 c-23 -19 -48
-48 -57 -65 -22 -43 -20 -121 5 -164 21 -34 21 -46 21 -529 l0 -493 -35 -35
c-25 -25 -35 -44 -35 -67 0 -49 29 -99 70 -122 l37 -22 -31 -16 c-18 -9 -41
-36 -54 -61 -42 -80 -14 -184 66 -246 l42 -32 -36 -11 c-47 -16 -98 -68 -119
-123 l-17 -44 -93 -5 c-71 -4 -101 -10 -126 -26 -42 -25 -67 -67 -71 -114 l-2
-35 -100 -6 c-56 -3 -109 -8 -118 -12 -10 -4 -34 -33 -53 -66 -24 -38 -51 -68
-81 -86 -87 -54 -86 -53 -75 -102 19 -87 -67 -79 935 -82 l888 -3 24 27 c16
19 24 40 24 67 0 37 -4 42 -55 75 -41 26 -67 53 -96 100 -48 76 -69 85 -196
85 l-83 0 0 34 c0 18 -10 48 -23 66 -36 54 -73 70 -180 77 l-95 6 -7 34 c-7
41 -68 111 -112 130 l-33 13 49 48 c50 48 71 95 71 158 0 45 -40 114 -78 134
l-33 18 37 19 c44 23 74 73 74 125 0 30 -7 42 -35 65 l-34 29 -1 494 c-1 479
0 496 20 535 39 76 22 153 -48 220 l-42 39 43 24 c23 13 53 33 65 45 27 25 62
88 62 111 0 19 86 84 155 119 81 40 159 59 248 58 143 0 227 -28 415 -139 64
-38 136 -79 159 -91 l42 -21 -41 -87 c-23 -49 -154 -319 -292 -602 l-251 -514
-44 -13 c-91 -27 -102 -69 -46 -182 71 -142 232 -254 443 -309 132 -34 354
-43 492 -19 117 21 242 63 317 107 129 77 232 205 249 310 5 31 2 39 -21 57
-15 12 -46 27 -67 34 l-40 12 -203 410 c-248 502 -385 786 -385 798 0 4 7 8
15 8 20 0 83 57 101 91 19 38 18 114 -2 145 -21 32 -64 54 -104 54 -73 0 -122
-59 -85 -100 22 -24 38 -25 55 -5 16 20 56 19 64 -1 11 -29 6 -45 -23 -75 -56
-56 -132 -34 -301 86 -262 187 -379 234 -548 222 -85 -6 -180 -37 -258 -85
l-49 -31 -43 44 c-24 24 -56 48 -71 55 l-27 11 28 82 c46 137 30 255 -41 291
-37 20 -58 20 -93 0z m72 -93 c21 -40 3 -176 -25 -183 -27 -8 -48 165 -23 190
18 18 36 15 48 -7z m-489 -365 c65 -14 142 -46 153 -65 3 -5 -22 3 -56 16 -34
14 -92 30 -128 35 -36 6 -74 14 -85 18 -34 15 42 11 116 -4z m1069 4 c11 -7 1
-10 -34 -10 -60 0 -163 -25 -234 -56 -66 -29 -58 -13 10 22 83 42 224 66 258
44z m-543 -20 c100 -61 95 -256 -7 -311 -44 -24 -76 -24 -120 -1 -128 69 -77
332 65 332 17 0 44 -9 62 -20z m-1387 -965 l0 -495 -63 0 c-78 0 -257 -18
-357 -35 -41 -7 -77 -11 -79 -9 -4 3 491 1033 497 1034 1 0 2 -223 2 -495z
m2570 1 l0 -493 -132 -7 c-73 -4 -187 -16 -253 -25 -66 -10 -122 -17 -124 -15
-3 3 501 1034 507 1034 1 0 2 -222 2 -494z m-2375 257 c60 -126 174 -356 253
-512 79 -156 142 -284 140 -286 -2 -1 -55 6 -118 16 -63 9 -177 21 -252 25
l-138 7 -2 488 c-2 269 -1 489 2 489 3 0 54 -102 115 -227z m2714 -296 c167
-339 244 -506 233 -503 -39 12 -256 37 -372 44 l-125 7 -3 490 c-1 300 1 485
7 480 5 -6 122 -239 260 -518z m-1543 447 c35 -52 12 -114 -42 -114 -25 0 -64
43 -64 70 0 10 9 29 21 44 27 34 63 34 85 0z m-25 -508 c0 -160 2 -349 5 -421
2 -71 0 -154 -4 -184 -7 -52 -8 -54 -24 -37 -16 16 -18 41 -18 240 0 123 3
331 7 463 5 196 9 240 20 236 10 -4 13 -63 14 -297z m-1401 -485 c0 -5 -21
-12 -47 -16 -62 -8 -196 -42 -228 -57 -70 -32 34 -56 275 -65 243 -8 510 16
510 47 0 15 -110 50 -212 68 -100 17 -129 32 -60 32 203 -1 566 -69 546 -102
-4 -5 -26 -18 -50 -28 -146 -63 -574 -97 -884 -70 -215 19 -437 73 -427 104 9
28 233 73 422 85 66 5 128 9 138 10 9 0 17 -3 17 -8z m2560 1 c0 -4 -44 -16
-97 -26 -103 -19 -203 -52 -203 -66 0 -40 392 -65 643 -39 120 12 159 20 164
36 6 17 -94 51 -206 70 -55 9 -97 21 -94 26 14 22 380 -18 501 -54 81 -25 92
-34 66 -53 -91 -67 -564 -113 -894 -87 -244 19 -459 69 -448 103 6 18 90 44
199 63 79 14 157 21 347 34 12 0 22 -3 22 -7z m-3004 -237 c49 -16 239 -45
289 -45 18 0 37 -5 41 -11 5 -8 -23 -9 -101 -4 -86 6 -106 5 -100 -5 12 -20
164 -87 228 -101 60 -13 81 -33 25 -23 -154 27 -250 64 -365 140 -81 54 -116
86 -77 69 10 -4 38 -13 60 -20z m1144 -5 c-111 -95 -260 -159 -427 -185 -68
-11 -50 8 26 26 72 18 159 56 201 88 l25 20 -115 -6 c-149 -7 -136 10 20 27
63 7 153 22 200 35 111 29 111 29 70 -5z m1455 -4 c33 -8 113 -20 178 -27 64
-7 117 -17 117 -22 0 -4 -48 -6 -107 -2 -102 6 -107 5 -88 -10 36 -30 136 -74
211 -91 77 -18 101 -37 37 -27 -140 19 -335 101 -413 172 -34 31 -39 39 -20
31 14 -5 52 -16 85 -24z m1124 18 c-7 -9 -41 -36 -76 -61 -92 -65 -232 -118
-370 -138 -72 -11 -48 9 34 29 75 17 167 58 208 90 18 15 11 16 -92 10 -152
-9 -146 8 8 24 96 11 187 29 298 61 2 1 -2 -6 -10 -15z m-1806 -38 c17 -44
-90 -85 -143 -56 -22 12 -43 46 -36 58 8 13 174 11 179 -2z m-65 -240 c26 4
41 2 49 -8 44 -57 -5 -158 -77 -158 -41 0 -90 63 -90 114 0 37 35 70 60 56 11
-6 37 -8 58 -4z m60 -371 c16 -14 32 -34 35 -45 5 -19 0 -20 -119 -20 -128 0
-134 2 -114 40 16 31 60 49 117 50 41 0 58 -5 81 -25z m295 -156 c30 -17 46
-39 47 -66 l0 -23 -425 0 -425 0 0 23 c0 36 27 65 63 69 17 2 186 5 375 6 249
2 348 -1 365 -9z m351 -242 c23 -32 58 -69 79 -81 20 -13 40 -26 44 -29 3 -4
-81 -6 -188 -6 -203 2 -208 4 -44 15 l99 6 -27 24 -28 24 -664 0 -665 0 -57
-30 c-98 -51 -171 -53 -83 -2 22 12 52 42 67 65 55 86 -28 77 741 75 l685 -3
41 -58z"/>
<path d="M1961 2862 c-14 -26 -2 -70 26 -92 45 -35 56 -4 23 68 -21 45 -34 52
-49 24z"/>
</g>
</svg>
