<?xml version="1.0" standalone="no"?>
<!DOCTYPE svg PUBLIC "-//W3C//DTD SVG 20010904//EN"
 "http://www.w3.org/TR/2001/REC-SVG-20010904/DTD/svg10.dtd">
<svg version="1.0" xmlns="http://www.w3.org/2000/svg"
 width="383.000000pt" height="259.000000pt" viewBox="0 0 383.000000 259.000000"
 preserveAspectRatio="xMidYMid meet">
<metadata>
Created by potrace 1.16, written by Peter Selinger 2001-2019
</metadata>
<g transform="translate(0.000000,259.000000) scale(0.100000,-0.100000)"
fill="currentColor" stroke="none">
<path d="M685 2580 c-3 -5 -8 -53 -11 -107 -5 -87 -3 -102 15 -130 34 -54 55
-46 180 74 88 83 109 108 97 115 -18 10 -227 58 -255 58 -11 0 -23 -4 -26 -10z"/>
<path d="M2960 2563 c-63 -14 -117 -27 -119 -29 -7 -6 134 -148 192 -195 58
-46 74 -42 107 27 22 44 22 49 10 135 l-13 89 -31 -1 c-17 0 -83 -12 -146 -26z"/>
<path d="M2587 2355 c-86 -91 -157 -170 -157 -174 0 -5 64 -75 142 -156 l143
-148 162 169 c90 93 163 174 163 179 0 9 -69 79 -236 238 l-60 58 -157 -166z"/>
<path d="M920 2371 l-144 -138 26 -34 c14 -19 88 -98 164 -177 l139 -144 148
149 148 149 -157 167 c-87 92 -162 167 -168 167 -6 -1 -76 -63 -156 -139z"/>
<path d="M665 2136 c-197 -148 -421 -165 -622 -49 l-43 25 0 -30 c0 -118 117
-398 228 -548 139 -185 353 -338 582 -417 96 -33 264 -67 330 -67 l52 0 -69
68 c-154 149 -221 299 -210 467 5 96 35 171 86 223 39 39 52 17 -123 207 -71
77 -134 146 -140 152 -9 10 -25 3 -71 -31z m-412 -281 c146 -273 322 -442 596
-568 75 -35 62 -49 -22 -21 -242 78 -471 288 -587 538 -40 86 -60 153 -42 142
6 -3 31 -44 55 -91z"/>
<path d="M2941 2009 l-151 -162 41 -44 c54 -59 78 -116 85 -205 13 -156 -55
-316 -196 -461 l-85 -87 46 0 c132 0 369 67 521 147 262 138 471 379 572 661
24 67 61 241 53 248 -2 2 -35 -12 -73 -31 -199 -99 -391 -84 -578 45 -40 27
-75 50 -78 50 -4 0 -74 -73 -157 -161z m661 -171 c-65 -168 -224 -359 -386
-466 -91 -59 -203 -109 -267 -117 -40 -6 -32 0 76 57 257 135 409 287 546 543
62 115 79 106 31 -17z"/>
<path d="M2404 2007 c-22 -23 -67 -73 -99 -112 -33 -38 -116 -133 -184 -210
-69 -77 -133 -150 -144 -161 -18 -22 -18 -22 10 -53 l28 -30 95 111 c130 152
370 450 370 458 0 4 -8 14 -18 23 -17 16 -21 14 -58 -26z"/>
<path d="M1355 2026 c-17 -12 -15 -18 45 -92 141 -175 356 -429 514 -609 298
-338 330 -394 324 -560 l-2 -80 82 -109 c46 -60 95 -129 109 -154 19 -33 28
-40 34 -30 12 21 29 136 29 194 0 47 -23 204 -36 248 -7 20 -94 122 -253 296
-169 183 -277 304 -426 475 -210 241 -386 435 -394 435 -4 0 -16 -6 -26 -14z"/>
<path d="M1276 1945 l-40 -33 111 -119 c61 -65 130 -136 152 -158 23 -21 41
-43 41 -48 0 -16 -79 49 -209 172 l-128 120 -23 -24 -23 -24 39 -44 c153 -171
312 -340 364 -385 33 -30 189 -191 346 -358 158 -167 289 -304 291 -304 15 0
-6 150 -28 200 -32 74 -72 126 -360 460 -134 157 -300 351 -368 433 -67 81
-124 147 -124 147 -1 -1 -20 -16 -41 -35z"/>
<path d="M2398 1847 c-58 -72 -163 -197 -232 -277 -69 -79 -126 -149 -126
-155 1 -5 23 -34 50 -62 l49 -53 105 90 c88 75 325 323 398 415 l20 26 -22 24
-23 25 -96 -93 c-93 -90 -217 -197 -227 -197 -12 0 39 59 111 130 42 41 99
101 127 133 l51 58 -34 35 c-18 18 -35 34 -38 34 -4 0 -54 -60 -113 -133z"/>
<path d="M1599 1103 c-41 -43 -108 -119 -150 -169 -72 -86 -76 -94 -93 -174
-22 -100 -24 -273 -4 -340 l14 -45 64 95 c34 52 85 123 112 157 l48 63 0 88
c0 112 17 170 80 266 28 42 50 80 50 85 0 4 -11 17 -23 30 l-24 22 -74 -78z"/>
<path d="M1721 1059 c-63 -87 -86 -146 -89 -239 -4 -85 -4 -85 16 -65 37 37
202 230 202 235 -1 3 -22 29 -49 59 l-48 53 -32 -43z"/>
<path d="M2515 765 c4 -11 9 -79 12 -150 5 -111 3 -142 -16 -214 l-21 -84 27
-46 c14 -25 28 -48 30 -50 8 -9 185 175 204 212 l20 38 -95 117 c-126 154
-170 202 -161 177z"/>
<path d="M1208 658 c-51 -62 -108 -131 -125 -153 l-31 -40 18 -35 c15 -29 191
-210 204 -210 3 0 17 24 33 53 l29 53 -19 55 c-24 65 -34 247 -19 329 6 30 9
56 7 58 -1 2 -45 -48 -97 -110z"/>
<path d="M976 379 c-21 -24 -44 -56 -52 -71 -14 -27 -14 -28 50 -68 35 -22 93
-71 128 -108 35 -38 69 -67 75 -65 7 3 26 27 44 54 l32 50 -95 92 c-52 51
-106 107 -119 126 l-25 34 -38 -44z"/>
<path d="M2785 393 c-10 -16 -61 -72 -114 -126 l-95 -97 18 -33 c11 -17 28
-42 39 -54 l20 -22 64 69 c36 39 94 88 129 111 35 23 64 45 64 48 0 14 -90
131 -101 131 -4 0 -15 -12 -24 -27z"/>
<path d="M2876 205 c-49 -33 -176 -152 -176 -165 0 -14 64 -34 109 -34 67 1
106 25 126 79 18 45 17 127 -1 145 -5 5 -31 -6 -58 -25z"/>
<path d="M876 190 c-11 -71 16 -140 66 -166 50 -26 178 -16 178 14 0 31 -189
192 -225 192 -7 0 -15 -18 -19 -40z"/>
</g>
</svg>
