<?xml version="1.0" standalone="no"?>
<!DOCTYPE svg PUBLIC "-//W3C//DTD SVG 20010904//EN"
 "http://www.w3.org/TR/2001/REC-SVG-20010904/DTD/svg10.dtd">
<svg version="1.0" xmlns="http://www.w3.org/2000/svg"
 width="352.000000pt" height="366.000000pt" viewBox="0 0 352.000000 366.000000"
 preserveAspectRatio="xMidYMid meet">
<metadata>
Created by potrace 1.16, written by Peter Selinger 2001-2019
</metadata>
<g transform="translate(0.000000,366.000000) scale(0.100000,-0.100000)"
fill="currentColor" stroke="none">
<path d="M1616 3650 c-37 -12 -85 -56 -102 -97 -8 -19 -14 -67 -14 -113 l0
-80 -45 0 c-85 0 -127 -36 -135 -114 -5 -49 -6 -50 -45 -59 -172 -37 -315 -87
-488 -174 -223 -110 -386 -230 -577 -422 -154 -155 -220 -243 -204 -269 21
-33 54 -25 178 47 247 142 502 250 736 311 132 34 323 70 371 70 28 0 29 -2
29 -50 0 -91 42 -138 128 -144 l47 -4 5 -1209 c4 -882 8 -1215 17 -1233 34
-74 91 -103 216 -108 148 -7 226 20 265 91 16 30 17 118 22 1247 l5 1215 25 1
c69 2 83 6 116 37 32 29 36 39 41 96 l6 63 56 -7 c129 -15 323 -59 466 -106
249 -80 406 -151 616 -275 124 -74 162 -81 167 -31 4 36 -40 95 -185 243 -287
294 -658 511 -1016 595 -50 11 -98 23 -104 25 -8 2 -13 22 -13 53 0 44 -4 52
-35 80 -30 26 -44 31 -84 31 -59 0 -61 4 -61 109 0 94 -21 134 -90 169 -39 19
-59 22 -165 21 -66 0 -133 -5 -149 -9z m285 -119 c15 -18 19 -39 19 -97 l0
-74 -160 0 -160 0 0 75 c0 70 2 78 27 101 27 25 31 25 141 22 106 -3 115 -5
133 -27z m199 -390 c0 -66 3 -126 6 -135 4 -11 19 -16 50 -16 l44 0 0 50 c0
60 -1 60 126 25 191 -51 423 -158 594 -275 81 -56 280 -216 280 -226 0 -2 -26
9 -57 25 -252 126 -710 251 -963 263 l-75 3 -3 -95 c-2 -60 -7 -97 -15 -102
-19 -12 -625 -10 -648 2 -17 9 -19 22 -19 106 l0 95 -62 -6 c-197 -19 -371
-52 -542 -102 -116 -33 -351 -121 -437 -162 -44 -22 -44 -22 26 44 212 199
628 414 869 450 l46 7 0 -35 c0 -53 9 -67 40 -67 60 0 60 1 60 141 l0 129 340
0 340 0 0 -119z m-183 -1513 c2 -511 -1 -928 -5 -928 -16 0 -63 500 -69 722
-3 120 -9 216 -12 212 -3 -3 -15 -42 -27 -87 l-21 -82 -7 145 c-8 168 3 275
34 345 21 47 22 62 21 245 -3 270 -15 276 -46 21 -8 -68 -17 -126 -19 -129 -3
-2 -8 13 -11 34 -4 22 -17 93 -30 159 l-22 120 -7 -115 c-4 -63 -6 -284 -4
-490 l4 -375 39 -200 38 -200 7 -405 c4 -223 8 -406 9 -407 0 -2 8 -3 16 -3
20 0 29 19 69 151 l35 114 3 -105 c5 -194 3 -219 -21 -243 -19 -20 -32 -22
-125 -22 -97 0 -106 2 -130 24 -25 23 -26 29 -25 125 l1 101 31 -67 c18 -37
36 -67 40 -68 5 0 6 177 2 392 -6 364 -8 401 -31 499 -52 230 -54 269 -54 873
l0 565 73 4 c39 2 110 3 157 3 l85 -1 2 -927z"/>
<path d="M1540 2955 l0 -185 218 2 217 3 3 183 2 182 -220 0 -220 0 0 -185z"/>
</g>
</svg>
