<?xml version="1.0" standalone="no"?>
<!DOCTYPE svg PUBLIC "-//W3C//DTD SVG 20010904//EN"
 "http://www.w3.org/TR/2001/REC-SVG-20010904/DTD/svg10.dtd">
<svg version="1.0" xmlns="http://www.w3.org/2000/svg"
 width="333.000000pt" height="559.000000pt" viewBox="0 0 333.000000 559.000000"
 preserveAspectRatio="xMidYMid meet">
<metadata>
Created by potrace 1.16, written by Peter Selinger 2001-2019
</metadata>
<g transform="translate(0.000000,559.000000) scale(0.100000,-0.100000)"
fill="currentColor" stroke="none">
<path d="M1603 5575 c-53 -37 -228 -401 -313 -650 -54 -159 -100 -336 -125
-481 -17 -101 -12 -131 27 -158 41 -29 72 -21 156 40 l22 16 0 -812 0 -813
-102 5 c-208 11 -376 97 -472 242 -46 69 -73 140 -86 224 -12 77 -6 129 40
342 34 156 55 376 45 469 -8 70 -11 69 59 19 57 -41 115 -39 151 4 24 28 27
38 22 79 -14 117 -124 367 -232 529 -150 225 -383 433 -596 535 -106 50 -141
54 -173 22 -34 -35 -33 -62 10 -182 127 -353 178 -584 190 -864 8 -191 -7
-354 -53 -555 -35 -153 -37 -170 -37 -336 0 -158 3 -185 27 -275 15 -55 49
-145 77 -200 192 -386 571 -613 1060 -638 l65 -3 5 -959 5 -960 27 -50 c56
-105 146 -160 263 -159 111 0 204 57 258 157 l22 42 3 961 2 961 83 7 c388 32
663 153 879 385 120 130 200 279 249 467 21 77 24 112 24 259 0 165 -1 176
-44 365 l-45 195 0 230 c-1 174 4 258 17 345 25 156 87 395 137 526 84 219 85
222 67 260 -35 73 -141 48 -330 -76 -236 -156 -465 -422 -588 -686 -49 -103
-109 -282 -109 -323 0 -96 97 -125 190 -56 19 14 36 25 40 25 3 0 4 -20 2 -46
-8 -92 18 -329 54 -489 45 -205 51 -280 30 -369 -49 -208 -220 -368 -442 -411
-44 -9 -109 -15 -145 -13 l-64 3 -3 808 c-1 444 0 807 3 807 3 0 28 -16 56
-35 63 -43 91 -44 130 -6 34 34 35 51 14 171 -60 347 -193 705 -375 1014 -28
47 -59 90 -70 96 -28 15 -82 12 -107 -5z m206 -606 c54 -136 124 -362 119
-384 -2 -9 -26 2 -76 36 -41 27 -80 49 -88 49 -12 0 -14 -132 -14 -976 1 -590
5 -996 11 -1027 10 -53 42 -97 89 -122 41 -21 128 -27 243 -16 143 14 214 33
327 89 172 84 312 251 365 435 40 140 36 287 -14 497 -46 192 -54 287 -47 525
4 116 9 222 12 238 8 37 -9 36 -96 -8 -38 -19 -72 -35 -75 -35 -9 0 32 94 69
157 65 111 157 227 268 336 60 60 111 107 114 104 2 -2 -11 -61 -31 -132 -74
-272 -102 -502 -91 -765 7 -180 14 -228 63 -445 42 -187 48 -324 18 -460 -43
-203 -164 -394 -327 -517 -189 -143 -357 -197 -661 -214 -148 -8 -177 -20
-214 -94 l-23 -44 0 -969 0 -969 -29 -29 c-37 -36 -79 -38 -118 -5 l-28 24 -5
990 c-5 981 -5 991 -26 1018 -46 62 -62 67 -242 80 -111 9 -201 21 -267 38
-277 71 -494 241 -613 481 -68 136 -84 201 -89 365 -5 139 -4 152 31 305 52
235 57 274 56 514 0 303 -24 488 -94 731 -14 46 -23 86 -21 88 7 8 103 -78
185 -165 43 -47 106 -124 138 -172 57 -82 132 -220 132 -240 0 -6 -38 8 -85
31 -47 22 -88 39 -90 36 -3 -2 0 -60 5 -129 22 -282 10 -463 -46 -701 -38
-161 -44 -316 -15 -429 35 -138 92 -241 186 -334 159 -158 335 -226 600 -229
104 -1 136 2 160 16 39 21 71 56 84 91 8 19 11 346 11 1033 0 843 -2 1004 -14
1004 -7 0 -44 -22 -82 -50 -38 -27 -72 -50 -76 -50 -10 0 34 156 83 295 45
128 115 298 157 380 l25 50 48 -100 c26 -55 70 -157 98 -226z"/>
</g>
</svg>
