<?xml version="1.0" standalone="no"?>
<!DOCTYPE svg PUBLIC "-//W3C//DTD SVG 20010904//EN"
 "http://www.w3.org/TR/2001/REC-SVG-20010904/DTD/svg10.dtd">
<svg version="1.0" xmlns="http://www.w3.org/2000/svg"
 width="414.000000pt" height="405.000000pt" viewBox="0 0 414.000000 405.000000"
 preserveAspectRatio="xMidYMid meet">
<metadata>
Created by potrace 1.16, written by Peter Selinger 2001-2019
</metadata>
<g transform="translate(0.000000,405.000000) scale(0.100000,-0.100000)"
fill="currentColor" stroke="none">
<path d="M1875 4034 c-152 -34 -303 -111 -432 -221 -114 -96 -234 -292 -284
-463 -20 -69 -22 -109 -31 -518 -6 -244 -7 -459 -3 -479 3 -20 19 -49 35 -65
23 -23 37 -28 75 -28 40 0 52 5 81 34 l34 34 1 208 c2 517 6 647 24 719 54
215 195 390 391 486 113 55 202 72 339 66 190 -9 329 -70 465 -207 98 -97 156
-197 192 -327 20 -73 22 -104 25 -503 2 -367 5 -429 19 -456 36 -70 145 -73
191 -5 16 24 18 63 21 416 2 236 -1 427 -7 483 -21 177 -94 350 -209 495 -124
155 -290 263 -487 317 -107 30 -337 37 -440 14z"/>
<path d="M2068 2722 l-496 -2 -4 -213 c-4 -243 -10 -268 -93 -356 -65 -70
-128 -95 -235 -95 -71 -1 -94 4 -141 26 -69 32 -127 88 -160 154 -23 47 -24
60 -27 267 l-3 218 -233 -3 c-229 -3 -233 -3 -269 -28 -77 -53 -60 34 -237
-1245 -34 -242 -86 -611 -116 -820 -56 -390 -61 -446 -45 -488 16 -40 73 -99
116 -118 38 -18 124 -19 1946 -19 l1905 0 51 25 c64 32 104 88 110 153 3 27
-17 201 -46 407 -56 398 -106 760 -210 1512 -77 557 -75 551 -155 598 -42 25
-46 25 -269 25 l-227 0 0 -193 c0 -215 -8 -261 -61 -340 -83 -125 -265 -172
-411 -105 -70 32 -124 86 -157 157 -25 54 -26 65 -31 271 l-5 215 -497 -3z"/>
</g>
</svg>
