<?xml version="1.0" standalone="no"?>
<!DOCTYPE svg PUBLIC "-//W3C//DTD SVG 20010904//EN"
 "http://www.w3.org/TR/2001/REC-SVG-20010904/DTD/svg10.dtd">
<svg version="1.0" xmlns="http://www.w3.org/2000/svg"
 width="438.000000pt" height="436.000000pt" viewBox="0 0 438.000000 436.000000"
 preserveAspectRatio="xMidYMid meet">
<metadata>
Created by potrace 1.16, written by Peter Selinger 2001-2019
</metadata>
<g transform="translate(0.000000,436.000000) scale(0.100000,-0.100000)"
fill="currentColor" stroke="none">
<path d="M170 4340 c-25 -25 -25 -48 1 -201 40 -236 141 -482 277 -674 39 -54
237 -261 616 -643 l559 -564 -344 -344 -344 -344 -115 115 c-66 66 -131 121
-152 130 -121 49 -264 -31 -283 -160 -15 -96 21 -149 259 -385 69 -69 126
-129 126 -133 0 -5 -104 -116 -230 -247 l-231 -238 -52 -6 c-157 -20 -250
-128 -251 -288 0 -66 5 -85 33 -142 84 -171 266 -256 423 -196 89 33 178 144
178 221 0 8 115 129 255 269 l255 255 152 -152 c84 -83 168 -159 187 -168 47
-23 128 -22 176 3 97 49 135 144 104 256 -8 31 -41 70 -136 168 l-126 127 341
343 342 343 342 -342 342 -342 -125 -128 c-139 -141 -154 -169 -147 -259 6
-67 45 -128 103 -161 44 -25 133 -31 182 -12 15 6 99 81 186 167 l157 156 163
-160 c89 -89 204 -201 255 -249 50 -48 92 -95 92 -105 0 -73 72 -175 154 -218
43 -22 64 -27 131 -27 66 0 90 5 137 27 74 34 146 107 184 183 26 53 29 71 29
150 0 67 -4 98 -18 122 -48 89 -137 151 -224 156 l-48 3 -237 240 c-131 132
-238 244 -238 249 0 5 80 90 178 189 201 203 220 233 209 328 -9 70 -44 120
-108 152 -65 32 -134 34 -187 7 -20 -11 -86 -69 -147 -130 l-110 -111 -337
337 c-186 186 -338 343 -338 349 0 7 253 268 563 580 595 602 608 616 719 824
88 164 146 344 179 552 21 140 0 161 -138 133 -206 -40 -430 -135 -628 -266
-101 -66 -156 -118 -693 -653 l-583 -581 -592 591 c-519 519 -604 599 -687
653 -174 113 -367 196 -575 247 -121 29 -139 30 -165 4z m274 -174 c135 -45
269 -110 386 -186 82 -54 165 -132 618 -584 288 -286 551 -552 584 -589 l61
-68 -69 -70 c-37 -38 -72 -69 -77 -69 -5 0 -259 252 -565 560 -499 502 -560
560 -588 560 -17 0 -38 -8 -48 -19 -43 -47 -44 -45 547 -641 l558 -563 -68
-69 -68 -69 -546 548 c-344 345 -569 578 -606 629 -65 89 -146 239 -188 349
-29 76 -75 256 -75 293 0 31 22 29 144 -12z m3646 22 c-1 -29 -32 -158 -56
-233 -40 -120 -137 -314 -206 -407 -39 -54 -255 -278 -611 -635 l-552 -553
-67 67 -68 68 565 565 c604 604 593 592 545 640 -12 12 -33 20 -52 20 -29 0
-85 -53 -590 -557 -307 -307 -562 -559 -566 -561 -4 -1 -39 29 -77 68 l-69 70
251 252 c917 924 905 912 1002 977 144 95 281 161 431 207 86 26 120 29 120
12z m-1827 -1760 l-73 -73 -70 70 -70 69 72 73 73 73 70 -70 70 -70 -72 -72z
m-237 -237 l-69 -70 -66 61 c-36 34 -68 66 -70 71 -2 5 27 40 65 78 l69 69 70
-70 70 -70 -69 -69z m480 135 l61 -64 -67 -73 -67 -72 -41 32 c-22 18 -54 50
-71 71 l-31 39 64 65 c35 36 70 66 77 66 8 0 41 -29 75 -64z m-713 -244 l67
-67 -339 -345 -339 -345 -73 72 -74 73 50 52 c174 182 622 628 630 628 6 0 41
-30 78 -68z m464 6 c35 -34 63 -66 63 -71 0 -16 -113 -127 -130 -127 -16 0
-130 110 -130 125 0 8 121 135 129 135 3 0 34 -28 68 -62z m749 -274 c181
-185 330 -339 332 -343 1 -3 -30 -38 -68 -76 l-71 -70 -334 340 c-184 187
-334 343 -334 347 -1 13 121 138 134 138 7 0 160 -151 341 -336z m94 -584 c0
-3 -29 -35 -65 -70 l-65 -65 -342 343 -342 343 69 69 69 70 338 -342 c186
-188 338 -345 338 -348z m-1070 615 l65 -65 -343 -343 -342 -342 -67 68 -68
67 340 340 c187 187 342 340 345 340 3 0 35 -29 70 -65z m-903 -658 c276 -276
508 -514 514 -530 10 -24 9 -32 -8 -54 -27 -37 -46 -47 -74 -40 -14 4 -243
225 -531 515 -484 484 -508 510 -508 544 0 46 40 83 80 73 15 -4 215 -196 527
-508z m2714 484 c16 -16 29 -40 29 -53 0 -17 -133 -155 -512 -536 -282 -282
-523 -515 -536 -519 -52 -13 -103 48 -83 98 5 13 238 252 518 532 377 376 514
507 531 507 13 0 37 -13 53 -29z m-2821 -846 c-19 -19 -39 -35 -45 -35 -6 0
-48 38 -95 85 l-84 85 39 40 39 40 90 -90 90 -90 -34 -35z m2480 50 c-46 -47
-87 -85 -90 -85 -3 1 -23 16 -45 35 l-40 34 90 91 90 90 40 -40 40 -40 -85
-85z m-2706 -101 l80 -84 -39 -40 -39 -40 -83 82 c-46 45 -83 88 -83 94 0 12
70 74 80 72 3 0 41 -38 84 -84z m2929 48 l37 -38 -88 -87 -88 -87 -38 39 -39
40 77 86 c43 47 83 85 90 85 7 0 29 -17 49 -38z m-3104 -225 l85 -87 -42 -43
-43 -44 -84 87 c-47 47 -85 90 -85 95 0 11 72 86 80 83 3 -2 43 -42 89 -91z
m3275 54 c21 -22 37 -44 35 -49 -2 -6 -39 -47 -82 -92 l-78 -81 -45 36 c-24
20 -44 39 -44 42 0 7 163 181 170 182 3 1 23 -17 44 -38z m-3622 -168 c18 -31
153 -164 207 -204 l34 -25 -18 -37 c-34 -73 -128 -104 -206 -70 -62 28 -104
66 -129 119 -42 86 -23 184 43 224 42 26 50 25 69 -7z m3909 4 c19 -12 42 -38
52 -57 50 -97 -38 -254 -163 -291 -53 -16 -113 2 -157 46 -50 50 -44 71 39
135 68 52 168 160 168 181 0 16 25 10 61 -14z"/>
</g>
</svg>
