<?xml version="1.0" standalone="no"?>
<!DOCTYPE svg PUBLIC "-//W3C//DTD SVG 20010904//EN"
 "http://www.w3.org/TR/2001/REC-SVG-20010904/DTD/svg10.dtd">
<svg version="1.0" xmlns="http://www.w3.org/2000/svg"
 width="407.000000pt" height="407.000000pt" viewBox="0 0 407.000000 407.000000"
 preserveAspectRatio="xMidYMid meet">
<metadata>
Created by potrace 1.16, written by Peter Selinger 2001-2019
</metadata>
<g transform="translate(0.000000,407.000000) scale(0.100000,-0.100000)"
fill="currentColor" stroke="none">
<path d="M1713 4050 c-41 -25 -47 -47 -78 -295 -35 -279 -23 -248 -113 -280
-42 -16 -107 -43 -144 -62 -37 -18 -73 -33 -80 -33 -7 0 -84 68 -172 151 -87
83 -169 154 -183 160 -46 17 -97 10 -144 -20 -24 -16 -126 -111 -226 -212
-272 -276 -272 -267 14 -560 l113 -116 -39 -84 c-21 -46 -49 -113 -61 -149
-13 -36 -28 -70 -34 -77 -6 -6 -109 -20 -245 -32 -143 -13 -244 -27 -261 -36
-56 -29 -60 -55 -60 -365 0 -309 3 -330 58 -363 21 -11 91 -22 247 -37 121
-11 229 -20 241 -20 17 0 26 -12 44 -62 12 -35 43 -107 67 -161 l45 -98 -151
-159 c-83 -87 -158 -174 -166 -194 -39 -93 -16 -132 217 -363 291 -288 255
-292 635 71 l52 49 98 -45 c54 -25 123 -54 153 -63 30 -10 57 -20 60 -22 2 -2
18 -116 35 -254 28 -221 34 -252 54 -273 42 -45 61 -47 357 -44 366 4 351 -6
379 238 9 80 22 187 28 238 l12 93 121 48 c66 27 135 56 153 66 41 21 25 32
225 -157 108 -102 155 -140 184 -147 83 -23 134 12 375 257 146 149 177 193
177 251 0 54 -19 80 -176 246 l-156 165 50 112 c27 62 57 134 67 161 12 32 23
47 36 47 10 0 116 9 236 21 234 22 262 30 293 82 19 30 20 52 20 317 0 265 -1
287 -20 317 -34 56 -49 60 -290 83 -124 11 -234 22 -245 25 -14 3 -28 26 -49
82 -16 43 -44 113 -64 156 l-35 78 49 52 c27 29 98 102 156 163 120 125 138
161 117 237 -9 35 -40 72 -192 226 -100 101 -202 196 -226 212 -53 34 -122 39
-161 12 -14 -10 -94 -82 -179 -161 -84 -79 -158 -141 -165 -138 -85 38 -255
105 -269 106 -27 0 -35 30 -62 255 -31 244 -36 266 -76 300 l-31 25 -291 0
c-272 0 -294 -1 -324 -20z m527 -170 c0 -39 63 -486 70 -500 6 -12 52 -32 126
-55 64 -20 164 -61 222 -91 154 -79 143 -82 324 89 82 78 162 152 177 164 l28
22 158 -159 159 -159 -35 -40 c-19 -22 -94 -103 -166 -180 -108 -113 -133
-146 -133 -169 0 -16 27 -82 60 -148 32 -65 74 -164 91 -219 18 -55 42 -110
53 -122 19 -19 44 -23 251 -43 127 -12 238 -24 248 -26 15 -5 17 -23 17 -205
0 -109 -1 -199 -2 -200 -2 0 -115 -11 -251 -24 -146 -13 -254 -28 -262 -35 -8
-7 -29 -57 -46 -112 -16 -55 -59 -157 -95 -227 -35 -70 -64 -139 -64 -152 0
-39 29 -76 183 -236 81 -83 147 -157 147 -163 0 -6 -69 -81 -154 -167 l-153
-157 -45 39 c-25 22 -107 97 -182 168 -118 109 -141 127 -169 127 -21 0 -76
-22 -142 -55 -60 -31 -160 -71 -222 -91 -89 -28 -116 -40 -123 -57 -5 -12 -23
-130 -41 -262 -17 -132 -32 -241 -34 -243 -4 -5 -393 -7 -398 -2 -3 3 -19 113
-37 245 -23 172 -37 247 -49 265 -13 18 -42 31 -112 51 -52 15 -148 55 -215
88 -80 40 -132 61 -155 61 -30 -1 -54 -20 -209 -165 -96 -90 -177 -164 -180
-165 -3 0 -77 72 -164 159 l-159 159 159 167 c88 92 164 176 171 188 21 37 15
67 -32 154 -54 99 -108 228 -126 301 -22 88 -25 89 -270 112 -118 11 -229 22
-246 25 l-33 6 0 199 0 198 28 6 c15 3 124 15 242 26 136 13 223 26 237 35 14
10 31 46 53 112 17 54 60 159 96 234 51 108 64 142 58 164 -4 16 -74 98 -170
198 l-163 171 92 95 c50 53 124 127 164 165 l73 68 153 -149 c169 -167 190
-183 229 -183 15 0 78 25 140 55 62 31 151 67 198 81 122 37 140 45 151 66 5
10 16 71 24 136 7 64 21 174 31 245 l17 127 203 0 c126 0 204 -4 204 -10z"/>
<path d="M1902 2849 c-87 -15 -202 -57 -276 -101 -84 -49 -205 -163 -259 -242
-323 -475 -84 -1122 468 -1266 151 -40 361 -25 504 35 163 68 317 202 398 346
135 239 147 523 33 766 -102 218 -311 390 -543 447 -82 21 -252 29 -325 15z
m326 -202 c164 -57 299 -173 371 -318 207 -419 -69 -903 -533 -936 -177 -12
-329 48 -466 186 -129 130 -187 254 -197 422 -13 225 87 432 271 564 70 49
113 69 211 96 98 27 242 21 343 -14z"/>
</g>
</svg>
