<?xml version="1.0" standalone="no"?>
<!DOCTYPE svg PUBLIC "-//W3C//DTD SVG 20010904//EN"
 "http://www.w3.org/TR/2001/REC-SVG-20010904/DTD/svg10.dtd">
<svg version="1.0" xmlns="http://www.w3.org/2000/svg"
 width="384.000000pt" height="320.000000pt" viewBox="0 0 384.000000 320.000000"
 preserveAspectRatio="xMidYMid meet">
<metadata>
Created by potrace 1.16, written by Peter Selinger 2001-2019
</metadata>
<g transform="translate(0.000000,320.000000) scale(0.100000,-0.100000)"
fill="currentColor" stroke="none">
<path d="M1025 3190 c-173 -15 -367 -75 -501 -156 -308 -185 -504 -520 -521
-889 -6 -129 4 -172 46 -195 13 -6 247 -10 683 -10 584 0 666 -2 686 -16 19
-13 22 -24 22 -83 0 -111 65 -101 -689 -101 -703 0 -701 0 -735 -53 -15 -22
-16 -105 -14 -820 l3 -797 33 -32 32 -33 1832 -3 c1820 -2 1832 -2 1873 18 23
11 47 32 53 46 9 18 12 237 12 805 0 865 3 826 -65 855 -29 12 -146 14 -689
14 l-655 0 -15 22 c-10 14 -16 44 -16 80 0 46 4 61 22 78 21 20 31 20 694 20
l672 0 26 31 c24 28 26 37 26 132 0 346 -155 657 -429 863 -106 79 -191 124
-307 163 -193 64 -183 64 -1124 67 -470 1 -900 -2 -955 -6z m1595 -310 c19
-19 20 -33 20 -317 0 -262 -2 -299 -17 -315 -15 -17 -50 -18 -700 -18 -670 0
-683 0 -703 20 -19 19 -20 33 -20 314 l0 295 26 20 c26 21 34 21 700 21 661 0
674 0 694 -20z m-1715 -323 c0 -284 -1 -299 -19 -313 -30 -21 -548 -21 -566 1
-18 22 3 101 55 210 73 152 180 263 326 340 92 48 138 64 174 62 l30 -2 0
-298z m2151 278 c213 -80 381 -256 453 -474 26 -80 26 -107 1 -121 -32 -17
-532 -9 -553 9 -15 12 -17 47 -17 312 l0 299 25 0 c13 0 54 -11 91 -25z m-966
-917 c19 -21 20 -33 19 -292 0 -184 -4 -282 -13 -304 -40 -113 -193 -158 -284
-85 -76 62 -77 65 -80 375 l-3 278 25 25 c24 24 29 25 170 25 137 0 146 -1
166 -22z m-668 -495 c11 -10 18 -30 18 -54 0 -146 85 -297 214 -381 227 -146
532 -82 677 143 39 61 69 156 69 217 0 33 6 52 22 69 l21 23 534 0 c520 0 534
-1 553 -20 20 -20 20 -33 20 -554 l0 -535 -22 -15 c-20 -14 -190 -16 -1613
-16 -1224 0 -1594 3 -1603 12 -9 9 -12 145 -12 552 0 488 2 541 17 558 15 17
46 18 551 18 484 0 537 -2 554 -17z"/>
</g>
</svg>
