<?xml version="1.0" standalone="no"?>
<!DOCTYPE svg PUBLIC "-//W3C//DTD SVG 20010904//EN"
 "http://www.w3.org/TR/2001/REC-SVG-20010904/DTD/svg10.dtd">
<svg version="1.0" xmlns="http://www.w3.org/2000/svg"
 width="449.000000pt" height="448.000000pt" viewBox="0 0 449.000000 448.000000"
 preserveAspectRatio="xMidYMid meet">
<metadata>
Created by potrace 1.16, written by Peter Selinger 2001-2019
</metadata>
<g transform="translate(0.000000,448.000000) scale(0.100000,-0.100000)"
fill="currentColor" stroke="none">
<path d="M2208 4463 c-9 -10 -36 -122 -63 -261 -43 -219 -50 -243 -69 -246
-12 -3 -66 -11 -121 -20 -251 -39 -502 -144 -728 -306 -94 -67 -313 -293 -389
-400 -140 -197 -245 -446 -289 -682 -33 -181 -9 -158 -204 -194 -94 -17 -203
-37 -243 -44 -59 -10 -76 -17 -89 -37 -15 -22 -15 -28 -2 -51 13 -25 30 -29
264 -77 l249 -51 13 -94 c25 -185 75 -346 164 -523 257 -515 741 -863 1315
-947 l82 -12 36 -191 c20 -106 41 -216 47 -245 7 -37 18 -57 34 -68 27 -18 60
-11 74 14 5 9 30 123 56 252 26 129 48 236 48 237 1 0 56 11 122 22 398 70
770 273 1017 555 163 186 279 389 351 611 37 116 77 292 77 343 0 16 6 34 13
39 6 6 117 31 246 56 236 47 271 60 271 98 0 39 -42 54 -284 99 -214 39 -237
46 -240 64 -2 12 -13 76 -25 143 -73 424 -330 824 -706 1099 -223 163 -496
269 -797 309 -27 3 -48 10 -48 14 0 4 -20 113 -45 241 -29 148 -52 241 -62
252 -21 23 -56 23 -75 1z m101 -663 c28 -140 82 -421 120 -625 39 -203 79
-412 90 -464 l19 -94 -141 -144 c-77 -78 -145 -143 -151 -143 -21 0 -286 274
-286 295 0 17 255 1351 278 1455 l5 25 8 -25 c5 -14 31 -140 58 -280z m-239
25 c0 -16 -158 -842 -166 -864 -3 -10 -10 -10 -32 5 -148 98 -556 361 -626
404 l-89 54 54 49 c171 154 455 292 713 346 114 24 146 26 146 6z m561 -21
c168 -40 346 -117 479 -207 84 -57 210 -160 210 -173 0 -7 -21 -25 -47 -40
-41 -24 -445 -281 -626 -397 -40 -27 -59 -34 -62 -25 -8 27 -165 851 -165 872
0 12 93 -1 211 -30z m-1485 -596 c43 -68 149 -235 237 -371 87 -137 157 -250
155 -251 -8 -7 -890 -178 -894 -173 -8 8 15 135 42 236 47 174 121 336 222
487 53 77 147 194 157 194 2 0 38 -55 81 -122z m2394 -17 c156 -207 259 -458
305 -743 4 -24 2 -38 -5 -38 -24 0 -876 172 -882 178 -4 4 42 81 102 172 61
91 167 256 237 367 148 235 121 227 243 64z m-1951 -174 c102 -66 209 -135
237 -153 l52 -33 -18 -86 c-10 -48 -22 -90 -26 -95 -9 -8 -126 -30 -161 -30
-16 0 -38 26 -84 98 -81 125 -303 473 -313 490 -9 16 71 -33 313 -191z m1610
166 c-64 -104 -352 -549 -362 -559 -9 -9 -33 -7 -95 6 -45 9 -85 20 -88 23 -4
3 -15 43 -26 89 l-19 83 21 15 c40 28 585 380 588 380 2 0 -7 -17 -19 -37z
m-1179 -798 l145 -145 -150 -150 -150 -149 -315 64 c-173 35 -502 101 -730
146 -228 45 -418 85 -422 88 -4 4 196 46 445 95 248 48 569 112 712 141 143
29 274 53 290 54 26 1 50 -19 175 -144z m1219 30 c322 -64 648 -128 723 -143
76 -15 138 -29 138 -32 0 -3 -87 -23 -192 -43 -106 -21 -328 -64 -493 -96
-165 -32 -412 -80 -548 -107 l-248 -48 -147 147 -147 147 145 145 c85 86 153
145 164 145 10 0 283 -52 605 -115z m-846 -403 c85 -86 137 -146 137 -159 0
-11 -14 -87 -30 -169 -17 -82 -66 -340 -110 -574 -44 -234 -88 -465 -99 -515
-11 -49 -25 -116 -31 -149 -7 -32 -16 -54 -20 -50 -5 5 -29 119 -55 254 -78
417 -145 766 -186 978 -21 112 -39 214 -39 225 0 14 47 68 137 159 76 76 142
138 148 138 6 0 73 -62 148 -138z m-1280 -33 c229 -45 417 -86 417 -91 0 -4
-105 -173 -232 -374 l-233 -367 -48 54 c-180 200 -332 537 -372 822 l-7 49 29
-5 c15 -3 216 -43 446 -88z m2732 49 c-4 -24 -13 -76 -21 -116 -49 -242 -196
-542 -346 -705 l-53 -58 -54 88 c-30 48 -135 213 -233 365 -98 153 -178 282
-178 286 0 8 828 180 873 181 16 1 18 -4 12 -41z m-2013 -197 c5 -4 17 -47 28
-96 14 -68 16 -91 7 -97 -7 -4 -140 -88 -297 -187 -156 -99 -286 -178 -288
-176 -2 2 12 27 31 57 19 29 99 154 177 278 78 124 149 232 157 241 12 15 21
15 96 1 45 -8 85 -17 89 -21z m1193 -256 c101 -159 182 -291 180 -293 -7 -7
-551 333 -584 364 -6 6 19 155 29 174 9 16 130 50 168 47 18 -2 60 -61 207
-292z m-1088 -213 c17 -92 54 -290 83 -440 29 -150 49 -276 46 -279 -11 -11
-238 39 -341 74 -191 65 -390 178 -515 291 l-55 50 65 40 c36 23 202 129 370
236 168 107 307 195 310 195 3 1 19 -74 37 -167z m771 96 c40 -27 193 -126
340 -219 147 -94 271 -174 275 -178 5 -5 -20 -32 -55 -61 -181 -151 -393 -258
-632 -320 -143 -36 -216 -46 -216 -29 0 20 156 840 165 867 6 16 21 8 123 -60z"/>
</g>
</svg>
