<?xml version="1.0" standalone="no"?>
<!DOCTYPE svg PUBLIC "-//W3C//DTD SVG 20010904//EN"
 "http://www.w3.org/TR/2001/REC-SVG-20010904/DTD/svg10.dtd">
<svg version="1.0" xmlns="http://www.w3.org/2000/svg"
 width="419.000000pt" height="383.000000pt" viewBox="0 0 419.000000 383.000000"
 preserveAspectRatio="xMidYMid meet">
<metadata>
Created by potrace 1.16, written by Peter Selinger 2001-2019
</metadata>
<g transform="translate(0.000000,383.000000) scale(0.100000,-0.100000)"
fill="currentColor" stroke="none">
<path d="M925 3816 c-44 -20 -83 -66 -93 -111 -5 -22 -7 -105 -4 -184 4 -138
4 -144 -14 -138 -11 4 -53 18 -94 33 -67 24 -85 26 -175 21 -118 -5 -187 -28
-287 -94 -113 -74 -185 -172 -228 -308 -31 -98 -31 -257 -1 -375 28 -106 93
-246 163 -347 62 -91 224 -262 323 -342 210 -170 489 -322 747 -406 56 -18 83
-35 155 -100 49 -43 132 -107 185 -143 111 -72 114 -77 105 -186 -6 -83 -25
-140 -69 -213 l-32 -53 -121 0 c-260 0 -373 -48 -442 -188 l-28 -57 0 -250 c0
-234 1 -252 21 -290 12 -22 36 -49 55 -60 33 -20 55 -20 984 -23 1060 -3 1008
-6 1063 66 l27 35 3 252 c3 292 -4 328 -82 409 -83 85 -159 106 -384 106
l-132 0 -20 33 c-52 84 -82 217 -71 312 l6 47 100 63 c55 35 135 96 178 135
71 66 86 75 176 106 416 141 807 410 1031 709 191 256 262 568 179 790 -64
171 -222 314 -400 360 -93 25 -233 17 -318 -19 -36 -14 -66 -26 -67 -26 -2 0
-4 78 -6 173 -3 171 -3 174 -30 209 -56 73 33 68 -1235 68 -928 -1 -1144 -3
-1168 -14z m2111 -308 c10 -11 -13 -492 -31 -628 -56 -423 -193 -817 -366
-1051 -66 -90 -184 -200 -277 -259 -143 -91 -149 -96 -178 -157 -28 -56 -29
-62 -28 -208 0 -130 4 -165 28 -260 16 -60 45 -143 65 -184 35 -73 113 -170
155 -194 14 -8 93 -14 231 -17 l210 -5 0 -110 0 -110 -757 -3 -758 -2 0 109
c0 90 3 110 16 115 9 3 99 6 200 6 162 0 189 2 222 19 148 76 264 366 264 661
0 179 -23 218 -201 334 -221 145 -341 297 -466 590 -135 319 -200 668 -221
1183 l-7 172 129 4 c240 7 1762 2 1770 -5z m-2340 -418 c56 -24 109 -73 133
-123 12 -25 31 -111 46 -208 40 -258 114 -533 190 -705 14 -31 23 -59 21 -61
-7 -8 -139 64 -231 125 -296 196 -512 478 -532 693 -21 220 173 365 373 279z
m3011 5 c87 -37 142 -109 158 -211 15 -97 -53 -281 -154 -415 -72 -94 -242
-254 -346 -325 -105 -71 -255 -158 -262 -151 -2 3 2 18 10 34 26 50 114 316
141 424 14 58 39 188 56 290 20 121 39 199 54 229 24 48 98 111 150 128 48 16
152 14 193 -3z"/>
</g>
</svg>
