<?xml version="1.0" standalone="no"?>
<!DOCTYPE svg PUBLIC "-//W3C//DTD SVG 20010904//EN"
 "http://www.w3.org/TR/2001/REC-SVG-20010904/DTD/svg10.dtd">
<svg version="1.0" xmlns="http://www.w3.org/2000/svg"
 width="396.000000pt" height="396.000000pt" viewBox="0 0 396.000000 396.000000"
 preserveAspectRatio="xMidYMid meet">
<metadata>
Created by potrace 1.16, written by Peter Selinger 2001-2019
</metadata>
<g transform="translate(0.000000,396.000000) scale(0.100000,-0.100000)"
fill="currentColor" stroke="none">
<path d="M920 3949 c-14 -6 -36 -20 -48 -32 -43 -40 -52 -70 -52 -175 l0 -100
-162 -4 c-133 -4 -175 -9 -225 -26 -193 -67 -335 -213 -399 -409 l-29 -88 0
-1305 c0 -1238 1 -1308 18 -1365 54 -174 163 -303 324 -384 127 -63 62 -61
1637 -61 1394 0 1435 1 1510 20 113 29 189 73 282 165 62 61 90 98 117 155 71
146 67 56 67 1471 0 1237 -1 1278 -20 1353 -58 227 -229 398 -456 456 -58 15
-111 20 -210 20 l-132 0 -4 109 c-2 92 -6 114 -24 137 -54 72 -129 92 -203 52
-66 -35 -81 -71 -81 -195 l0 -103 -850 0 -850 0 0 103 c0 123 -15 160 -80 194
-46 24 -89 28 -130 12z m-100 -739 c0 -110 3 -137 20 -169 53 -105 208 -110
270 -9 17 29 20 51 20 171 l0 137 850 0 850 0 0 -128 c0 -113 3 -133 23 -172
28 -56 72 -82 136 -82 54 0 95 19 126 60 17 24 20 46 23 175 l3 149 137 -4
c168 -5 216 -22 291 -104 79 -86 86 -118 86 -389 l0 -230 -1671 -3 -1671 -2
-6 147 c-4 82 -3 198 2 260 7 97 13 120 38 165 35 62 108 122 173 143 28 8 93
14 173 14 l127 1 0 -130z m2838 -1787 l-3 -888 -28 -57 c-34 -70 -101 -131
-173 -158 -54 -20 -71 -20 -1479 -20 -1401 0 -1425 0 -1478 20 -70 26 -140 96
-169 169 l-23 56 -2 860 c-2 473 -1 870 2 883 l5 22 1675 0 1676 0 -3 -887z"/>
</g>
</svg>
