<?xml version="1.0" standalone="no"?>
<!DOCTYPE svg PUBLIC "-//W3C//DTD SVG 20010904//EN"
 "http://www.w3.org/TR/2001/REC-SVG-20010904/DTD/svg10.dtd">
<svg version="1.0" xmlns="http://www.w3.org/2000/svg"
 width="437.000000pt" height="279.000000pt" viewBox="0 0 437.000000 279.000000"
 preserveAspectRatio="xMidYMid meet">
<metadata>
Created by potrace 1.16, written by Peter Selinger 2001-2019
</metadata>
<g transform="translate(0.000000,279.000000) scale(0.100000,-0.100000)"
fill="currentColor" stroke="none">
<path d="M2116 2778 c-50 -14 -121 -84 -160 -158 -34 -64 -543 -958 -593
-1042 l-34 -57 -82 48 c-335 197 -968 553 -999 562 -100 27 -209 -43 -239
-154 -18 -67 -48 27 331 -1022 302 -837 302 -837 334 -873 67 -77 133 -89 326
-63 408 57 682 74 1160 75 465 1 807 -21 1205 -75 83 -11 167 -18 189 -14 71
11 142 60 173 120 9 16 84 221 168 455 84 234 218 607 298 830 171 477 181
509 172 553 -27 123 -152 202 -260 165 -22 -8 -137 -70 -255 -137 -443 -254
-736 -424 -774 -448 -31 -20 -40 -22 -47 -11 -22 33 -252 432 -414 718 -249
441 -250 442 -281 474 -57 56 -138 76 -218 54z m226 -788 c372 -662 455 -806
487 -837 42 -41 126 -68 179 -58 48 9 59 15 475 252 198 112 361 202 363 200
5 -5 -85 -261 -254 -717 -166 -448 -162 -440 -181 -440 -9 0 -68 7 -131 14
-668 83 -1448 89 -2090 16 -96 -11 -193 -21 -215 -22 l-39 -3 -22 60 c-12 33
-95 256 -184 495 -89 239 -175 474 -190 523 l-28 87 57 -32 c96 -54 654 -374
691 -396 19 -11 56 -26 82 -32 64 -16 146 7 199 58 36 34 241 389 545 939 49
89 93 161 98 160 5 -2 76 -122 158 -267z"/>
</g>
</svg>
