<?xml version="1.0" standalone="no"?>
<!DOCTYPE svg PUBLIC "-//W3C//DTD SVG 20010904//EN"
 "http://www.w3.org/TR/2001/REC-SVG-20010904/DTD/svg10.dtd">
<svg version="1.0" xmlns="http://www.w3.org/2000/svg"
 width="333.000000pt" height="448.000000pt" viewBox="0 0 333.000000 448.000000"
 preserveAspectRatio="xMidYMid meet">
<metadata>
Created by potrace 1.16, written by Peter Selinger 2001-2019
</metadata>
<g transform="translate(0.000000,448.000000) scale(0.100000,-0.100000)"
fill="currentColor" stroke="none">
<path d="M1230 4463 c-67 -35 -75 -91 -30 -197 16 -38 28 -72 25 -74 -2 -2
-26 3 -53 12 -76 26 -203 37 -290 26 -191 -25 -370 -118 -513 -266 -184 -193
-221 -342 -94 -384 l35 -12 -60 -39 c-178 -120 -273 -375 -226 -609 21 -99 60
-192 106 -243 32 -37 33 -40 27 -105 -8 -91 -37 -170 -102 -278 -60 -98 -67
-135 -38 -185 28 -47 75 -64 173 -63 154 2 320 74 441 194 133 131 196 261
209 435 15 193 97 366 239 505 123 119 258 179 421 188 55 2 119 -1 153 -8 58
-12 197 -75 197 -89 0 -5 -35 -11 -77 -14 -148 -12 -347 -84 -483 -177 -177
-120 -334 -325 -405 -529 -48 -135 -58 -205 -58 -376 0 -140 3 -172 26 -258
28 -104 104 -274 156 -351 17 -24 31 -50 31 -56 0 -7 -29 -43 -65 -82 -35 -38
-86 -102 -112 -141 -54 -83 -131 -246 -139 -298 -6 -34 -12 -39 -88 -75 -198
-94 -399 -264 -524 -443 -45 -64 -52 -81 -52 -121 0 -95 55 -126 196 -111 176
20 522 33 699 27 539 -20 878 -73 1519 -240 80 -21 106 -24 131 -16 42 14 81
57 90 98 9 46 -31 123 -139 268 l-83 112 -7 162 c-4 89 -6 164 -4 166 3 2 61
-35 131 -82 144 -97 176 -107 226 -72 41 28 54 61 116 303 61 237 95 417 131
701 l5 41 62 -13 c101 -22 124 -19 164 21 34 34 35 38 29 84 -20 154 -128 508
-204 674 -46 99 -73 122 -132 114 l-39 -5 -48 81 c-123 209 -314 392 -518 495
-59 29 -242 92 -269 92 -8 0 -26 20 -41 45 -14 25 -40 61 -56 80 l-30 33 55
37 c96 64 147 144 167 263 16 96 -5 196 -67 322 -41 82 -61 109 -148 196 -90
90 -113 107 -206 153 -140 68 -233 91 -395 98 -113 4 -135 2 -165 -14z m315
-208 c244 -63 447 -266 463 -463 7 -87 -9 -114 -114 -192 l-85 -62 -67 17
c-284 73 -589 -15 -812 -235 -179 -176 -281 -389 -299 -622 -6 -83 -13 -107
-45 -173 -48 -98 -119 -169 -219 -221 -42 -21 -78 -36 -81 -33 -3 3 8 39 24
81 38 97 53 201 44 303 -7 75 -10 83 -54 142 -62 80 -84 146 -83 248 3 242
182 410 420 392 92 -7 128 7 138 53 10 44 -11 94 -54 133 -44 39 -148 92 -202
102 -79 15 -75 30 30 127 119 110 262 168 416 168 136 0 256 -45 372 -140 38
-31 72 -50 87 -50 97 0 102 189 11 423 -9 22 28 23 110 2z m596 -1229 c173
-51 285 -116 407 -236 98 -97 226 -280 204 -293 -31 -19 -634 -197 -661 -196
-9 0 -29 19 -46 41 -146 201 -479 195 -630 -10 -106 -144 -107 -347 -1 -485
81 -107 209 -164 346 -154 l77 5 36 -90 c21 -49 37 -95 37 -103 0 -8 -14 -64
-31 -125 -42 -150 -44 -146 135 -259 233 -149 226 -144 227 -171 0 -14 4 -76
7 -138 5 -77 4 -111 -4 -108 -5 2 -47 29 -93 60 -220 150 -492 248 -765 276
-121 13 -267 8 -373 -11 -30 -6 -57 -9 -59 -6 -6 5 55 117 93 171 18 25 54 60
82 78 27 18 57 48 65 65 19 41 56 183 56 217 0 14 -24 63 -54 108 -117 180
-156 295 -163 479 -8 193 30 343 128 507 106 178 278 312 476 372 111 33 159
39 293 35 97 -2 144 -9 211 -29z m852 -773 c61 -154 105 -333 81 -333 -7 0
-86 16 -176 36 -90 19 -282 60 -427 90 -146 30 -267 56 -269 59 -6 6 -5 6 173
55 83 23 242 72 355 110 113 37 210 69 216 69 7 1 28 -38 47 -86z m-1173 8
c60 -32 93 -83 98 -150 10 -139 -98 -238 -230 -210 -146 32 -196 210 -90 323
15 16 41 34 57 42 44 19 124 17 165 -5z m637 -425 c198 -41 372 -78 387 -82
27 -6 27 -8 21 -63 -11 -95 -54 -347 -81 -470 -25 -116 -73 -303 -80 -310 -2
-3 -592 381 -623 405 -2 2 7 44 19 94 27 108 25 128 -30 272 -22 59 -40 110
-40 115 0 9 59 113 64 113 2 0 165 -33 363 -74z m-940 -1021 c299 -58 590
-229 805 -472 32 -36 56 -68 54 -71 -3 -2 -71 13 -153 33 -306 76 -647 131
-962 155 -152 11 -669 12 -806 1 -49 -4 -92 -6 -95 -3 -8 6 97 99 174 154 171
121 364 194 586 222 69 9 317 -3 397 -19z"/>
</g>
</svg>
