<?xml version="1.0" standalone="no"?>
<!DOCTYPE svg PUBLIC "-//W3C//DTD SVG 20010904//EN"
 "http://www.w3.org/TR/2001/REC-SVG-20010904/DTD/svg10.dtd">
<svg version="1.0" xmlns="http://www.w3.org/2000/svg"
 width="461.000000pt" height="431.000000pt" viewBox="0 0 461.000000 431.000000"
 preserveAspectRatio="xMidYMid meet">
<metadata>
Created by potrace 1.16, written by Peter Selinger 2001-2019
</metadata>
<g transform="translate(0.000000,431.000000) scale(0.100000,-0.100000)"
fill="currentColor" stroke="none">
<path d="M1069 4264 c-160 -165 -376 -305 -599 -387 -106 -39 -289 -83 -392
-93 -67 -7 -68 -7 -74 -41 -4 -19 -4 -137 -1 -261 5 -244 26 -393 82 -586 51
-177 176 -457 235 -527 l25 -30 85 27 c207 65 432 202 558 338 106 115 124
115 250 -7 114 -109 191 -166 322 -235 80 -43 282 -122 311 -122 13 0 82 107
131 205 157 313 244 747 223 1111 l-7 122 -56 7 c-205 25 -381 75 -561 161
-155 74 -266 150 -387 266 l-101 97 -44 -45z"/>
<path d="M3419 4239 c-143 -138 -308 -247 -488 -323 -163 -69 -291 -102 -505
-131 l-48 -7 5 -246 c4 -194 9 -274 27 -372 23 -132 73 -318 117 -435 34 -93
147 -314 181 -354 l27 -32 90 31 c219 77 376 171 524 315 140 136 157 136 290
1 94 -95 208 -178 336 -242 108 -54 265 -110 287 -102 20 8 120 189 173 313
132 310 200 743 166 1060 l-6 60 -90 12 c-200 29 -393 90 -577 185 -125 64
-237 146 -349 255 l-86 84 -74 -72z"/>
<path d="M1030 2529 c-245 -227 -559 -368 -920 -411 l-105 -13 -3 -180 c-4
-206 8 -347 44 -523 107 -535 402 -976 854 -1276 52 -35 121 -76 152 -92 l58
-28 47 23 c70 33 226 138 318 212 374 301 631 745 715 1236 26 153 43 407 35
530 l-7 102 -66 6 c-363 36 -729 193 -963 412 -42 40 -78 73 -80 73 -2 -1 -38
-32 -79 -71z"/>
<path d="M3410 2523 c-262 -232 -581 -367 -967 -408 l-63 -7 0 -197 c0 -495
110 -877 359 -1247 171 -254 390 -457 662 -611 l92 -52 41 21 c199 101 471
324 621 508 313 384 483 937 450 1462 l-7 116 -76 7 c-184 16 -434 85 -588
163 -125 63 -257 155 -348 242 -46 44 -85 80 -87 80 -2 -1 -42 -35 -89 -77z"/>
</g>
</svg>
