<?xml version="1.0" standalone="no"?>
<!DOCTYPE svg PUBLIC "-//W3C//DTD SVG 20010904//EN"
 "http://www.w3.org/TR/2001/REC-SVG-20010904/DTD/svg10.dtd">
<svg version="1.0" xmlns="http://www.w3.org/2000/svg"
 width="292.000000pt" height="264.000000pt" viewBox="0 0 292.000000 264.000000"
 preserveAspectRatio="xMidYMid meet">
<metadata>
Created by potrace 1.16, written by Peter Selinger 2001-2019
</metadata>
<g transform="translate(0.000000,264.000000) scale(0.100000,-0.100000)"
fill="currentColor" stroke="none">
<path d="M44 2625 c-44 -30 -46 -52 -42 -441 5 -418 8 -442 89 -563 75 -113
190 -181 361 -216 24 -4 27 -9 22 -33 -8 -45 -102 -642 -139 -887 -20 -126
-37 -236 -40 -242 -3 -9 -34 -13 -109 -13 -117 0 -150 -10 -172 -51 -30 -58
-13 -128 38 -159 33 -20 51 -20 1413 -20 1284 0 1382 1 1405 17 40 28 49 45
50 96 0 96 -33 117 -184 117 -91 0 -105 2 -110 18 -13 39 -178 1143 -172 1149
2 2 32 11 67 19 195 49 336 182 384 365 12 42 15 136 15 427 l0 374 -29 29
-29 29 -322 0 c-201 0 -329 -4 -341 -10 -38 -21 -44 -57 -44 -251 l0 -186
-148 -7 c-82 -3 -153 -3 -158 0 -5 3 -9 93 -9 200 l0 196 -29 29 -29 29 -321
0 -320 0 -28 -24 -28 -24 -5 -204 -5 -203 -152 0 -153 0 0 187 c0 203 -5 230
-51 254 -42 21 -645 21 -675 -1z m496 -387 c0 -211 9 -244 70 -265 54 -18 580
-17 624 1 63 26 66 39 66 253 l0 193 159 0 159 0 4 -192 c2 -144 7 -198 17
-214 32 -48 40 -49 341 -52 319 -4 349 0 380 51 18 29 20 51 20 220 l0 187
161 0 161 0 -4 -282 c-3 -263 -5 -286 -24 -329 -31 -66 -78 -114 -142 -146
l-57 -28 -1015 0 c-1012 0 -1015 0 -1060 21 -57 27 -117 87 -144 144 -20 42
-21 64 -24 333 l-3 287 155 0 156 0 0 -182z m1679 -844 c5 -5 14 -47 20 -94 7
-47 41 -276 76 -510 35 -234 68 -455 73 -492 l9 -68 -239 0 -238 0 0 228 c0
165 -4 244 -15 290 -44 185 -186 319 -374 352 -218 39 -435 -95 -502 -311 -14
-46 -19 -91 -19 -188 0 -70 -3 -183 -7 -249 l-6 -122 -239 0 -239 0 6 33 c28
163 175 1102 175 1117 0 20 9 20 553 22 769 4 957 2 966 -8z m-694 -525 c54
-14 118 -67 148 -123 21 -38 22 -56 25 -278 l4 -238 -235 0 -235 0 -7 75 c-10
105 0 373 15 415 26 72 74 120 148 146 46 16 81 17 137 3z"/>
</g>
</svg>
