<?xml version="1.0" standalone="no"?>
<!DOCTYPE svg PUBLIC "-//W3C//DTD SVG 20010904//EN"
 "http://www.w3.org/TR/2001/REC-SVG-20010904/DTD/svg10.dtd">
<svg version="1.0" xmlns="http://www.w3.org/2000/svg"
 width="347.000000pt" height="529.000000pt" viewBox="0 0 347.000000 529.000000"
 preserveAspectRatio="xMidYMid meet">
<metadata>
Created by potrace 1.16, written by Peter Selinger 2001-2019
</metadata>
<g transform="translate(0.000000,529.000000) scale(0.100000,-0.100000)"
fill="currentColor" stroke="none">
<path d="M320 5276 c-230 -67 -365 -300 -305 -529 8 -32 26 -80 40 -107 l26
-50 -1 -2233 c0 -1458 3 -2244 10 -2268 5 -19 22 -46 36 -60 l26 -24 271 -3
c294 -3 309 -1 352 50 l25 30 0 1072 0 1072 288 112 c581 226 1641 635 2097
809 206 79 232 92 252 122 45 66 40 152 -13 204 -16 16 -125 65 -312 140 -606
241 -2317 929 -2322 933 -2 3 1 13 8 22 7 9 29 51 50 92 36 73 37 78 37 185
-1 90 -5 120 -23 165 -45 113 -141 205 -261 251 -70 27 -215 35 -281 15z m195
-265 c45 -20 92 -70 101 -107 4 -14 4 -49 2 -79 -8 -98 -79 -159 -183 -158
-120 1 -195 100 -171 227 13 70 98 136 176 136 19 0 53 -9 75 -19z m15 -2683
l0 -2078 -90 0 -90 0 0 2078 0 2077 90 0 90 0 0 -2077z m1025 1625 c1286 -516
1429 -574 1434 -579 2 -2 2 -6 -1 -9 -3 -3 -185 -75 -404 -159 -421 -162 -788
-304 -1379 -534 -198 -77 -370 -143 -382 -146 l-23 -7 0 866 0 866 23 -7 c12
-3 342 -135 732 -291z"/>
</g>
</svg>
