<?xml version="1.0" standalone="no"?>
<!DOCTYPE svg PUBLIC "-//W3C//DTD SVG 20010904//EN"
 "http://www.w3.org/TR/2001/REC-SVG-20010904/DTD/svg10.dtd">
<svg version="1.0" xmlns="http://www.w3.org/2000/svg"
 width="383.000000pt" height="510.000000pt" viewBox="0 0 383.000000 510.000000"
 preserveAspectRatio="xMidYMid meet">
<metadata>
Created by potrace 1.16, written by Peter Selinger 2001-2019
</metadata>
<g transform="translate(0.000000,510.000000) scale(0.100000,-0.100000)"
fill="currentColor" stroke="none">
<path d="M1652 5085 c-205 -27 -415 -92 -607 -188 -414 -206 -756 -586 -926
-1026 -44 -114 -97 -336 -110 -463 -14 -136 -7 -405 16 -538 23 -141 71 -311
121 -433 24 -60 42 -113 39 -118 -4 -5 -21 -9 -38 -9 -18 0 -50 -9 -73 -19
-53 -24 -74 -68 -74 -154 0 -292 192 -545 485 -637 39 -13 73 -25 77 -29 4 -3
12 -135 17 -292 12 -322 24 -390 87 -510 61 -116 189 -226 301 -259 32 -10 49
-23 69 -54 51 -77 96 -125 167 -180 123 -93 231 -138 387 -161 111 -17 469
-20 605 -5 246 28 454 145 584 330 30 43 45 55 90 71 169 59 311 227 356 424
10 43 19 163 25 352 6 157 11 287 12 287 2 1 41 14 88 29 249 79 420 270 465
521 28 154 8 228 -70 266 -23 11 -55 20 -73 20 -17 0 -33 3 -35 8 -3 4 15 56
40 116 56 136 107 334 128 489 31 238 15 541 -40 752 -200 769 -848 1329
-1637 1414 -128 14 -347 12 -476 -4z m536 -231 c610 -90 1136 -539 1330 -1134
63 -193 76 -283 76 -515 0 -283 -29 -440 -135 -720 -78 -209 -74 -278 21 -343
19 -12 54 -28 78 -34 l44 -11 -4 -42 c-16 -139 -145 -279 -309 -336 -55 -19
-80 -22 -179 -19 -231 7 -262 5 -314 -19 -121 -53 -167 -127 -192 -311 -9 -63
-22 -129 -29 -147 l-13 -32 -38 20 c-21 10 -47 19 -59 19 -29 0 -84 -36 -96
-64 l-11 -24 -36 24 c-19 13 -46 24 -59 24 -42 0 -91 -27 -108 -60 l-16 -31
-35 30 c-28 25 -44 31 -80 31 -39 0 -51 -5 -80 -34 l-34 -34 -34 34 c-29 29
-41 34 -81 34 -39 0 -52 -5 -77 -30 -17 -17 -31 -30 -32 -28 -30 48 -44 62
-73 75 -43 18 -93 11 -118 -17 -23 -26 -29 -25 -44 3 -28 52 -116 74 -166 41
-22 -14 -24 -14 -35 6 -6 11 -18 71 -26 133 -19 144 -36 195 -86 251 -84 96
-179 124 -362 107 -120 -11 -196 -3 -277 30 -134 52 -221 149 -263 288 -22 75
-21 78 21 86 120 22 187 111 164 217 -6 24 -33 102 -62 173 -97 245 -133 437
-132 715 0 160 4 202 26 311 34 162 73 273 153 430 88 173 175 292 323 439
385 385 896 547 1459 464z m-1226 -3402 c28 -27 31 -39 49 -173 19 -146 38
-218 65 -239 10 -9 14 -34 14 -82 0 -69 1 -71 40 -110 39 -39 42 -40 92 -36
47 5 54 3 72 -19 36 -47 107 -65 156 -40 23 11 27 10 47 -14 39 -46 133 -58
175 -21 15 13 20 12 48 -12 41 -34 123 -37 164 -5 l26 20 26 -20 c20 -16 41
-21 85 -21 50 0 61 3 85 29 l28 30 24 -20 c47 -36 156 -18 182 31 9 18 13 18
45 4 57 -24 130 3 162 60 7 13 14 14 39 4 41 -15 81 -3 121 37 31 31 33 38 33
98 0 50 6 74 25 109 19 35 29 77 44 196 12 98 25 162 36 178 26 40 79 58 140
48 27 -5 49 -11 49 -14 -1 -3 -4 -120 -8 -260 -8 -278 -15 -339 -53 -415 -45
-92 -149 -173 -245 -192 -52 -9 -66 -21 -92 -71 -55 -109 -195 -223 -328 -268
-100 -34 -212 -44 -458 -39 -175 3 -229 7 -291 23 -161 43 -279 130 -358 265
-44 74 -45 75 -105 91 -82 23 -135 55 -189 116 -86 95 -101 177 -109 570 l-3
184 25 8 c50 15 111 2 142 -30z"/>
<path d="M3221 3587 c-44 -22 -61 -58 -71 -148 -4 -46 -16 -114 -25 -149 -22
-87 -94 -240 -112 -240 -8 0 -58 13 -111 30 -144 44 -233 60 -336 60 -148 0
-241 -35 -337 -127 -100 -95 -144 -218 -143 -393 1 -162 46 -272 155 -381 97
-97 278 -190 449 -231 111 -26 257 -21 343 11 162 63 260 213 289 444 18 139
-12 285 -81 397 l-31 50 34 62 c92 169 160 473 126 562 -11 31 -65 66 -100 66
-14 0 -36 -6 -49 -13z m-476 -697 c280 -76 358 -151 357 -345 -1 -162 -74
-296 -177 -325 -90 -25 -233 7 -388 88 -150 77 -217 170 -225 307 -7 139 35
232 129 279 50 25 61 27 139 23 47 -3 121 -15 165 -27z"/>
<path d="M487 3569 c-39 -30 -49 -81 -36 -175 22 -162 74 -329 133 -426 l33
-56 -34 -53 c-58 -93 -78 -175 -78 -324 0 -109 4 -142 24 -205 31 -101 54
-144 109 -202 86 -92 197 -138 333 -138 217 0 465 103 615 255 112 113 154
223 155 400 1 194 -70 336 -211 427 -146 93 -365 91 -647 -6 l-73 -25 -19 28
c-45 63 -93 215 -115 366 -14 90 -18 103 -46 128 -39 34 -104 38 -143 6z m864
-659 c52 -15 113 -72 140 -132 34 -77 34 -212 0 -283 -38 -76 -115 -145 -222
-198 -170 -85 -330 -108 -411 -60 -77 45 -125 146 -135 283 -13 182 64 279
277 348 151 50 272 64 351 42z"/>
<path d="M1840 2301 c-51 -27 -79 -67 -185 -261 -143 -261 -161 -345 -102
-474 28 -61 75 -101 143 -122 63 -19 94 -18 166 7 58 19 62 19 97 3 54 -26
165 -24 218 4 113 59 164 211 114 342 -28 75 -188 370 -230 426 -40 54 -107
94 -156 94 -17 0 -46 -8 -65 -19z m98 -298 c11 -16 47 -81 81 -146 61 -118 74
-170 49 -195 -19 -19 -32 -15 -89 28 -30 22 -59 40 -65 40 -7 0 -31 -15 -53
-34 -56 -47 -78 -53 -104 -28 -19 19 -19 25 -8 62 10 34 103 214 145 283 15
23 21 22 44 -10z"/>
</g>
</svg>
