<?xml version="1.0" standalone="no"?>
<!DOCTYPE svg PUBLIC "-//W3C//DTD SVG 20010904//EN"
 "http://www.w3.org/TR/2001/REC-SVG-20010904/DTD/svg10.dtd">
<svg version="1.0" xmlns="http://www.w3.org/2000/svg"
 width="334.000000pt" height="331.000000pt" viewBox="0 0 334.000000 331.000000"
 preserveAspectRatio="xMidYMid meet">
<metadata>
Created by potrace 1.16, written by Peter Selinger 2001-2019
</metadata>
<g transform="translate(0.000000,331.000000) scale(0.100000,-0.100000)"
fill="currentColor" stroke="none">
<path d="M110 3283 c0 -54 49 -241 89 -345 92 -234 198 -373 457 -598 104 -91
285 -250 402 -354 117 -105 222 -196 232 -203 16 -11 25 -5 85 58 36 39 65 75
63 81 -2 5 -65 71 -139 146 -522 526 -901 925 -969 1017 -14 19 -14 19 5 4
109 -85 333 -296 707 -668 386 -383 450 -442 463 -431 9 7 38 39 65 70 l50 58
-68 78 c-37 44 -175 207 -307 364 -345 410 -383 451 -479 515 -165 110 -412
204 -603 230 l-53 7 0 -29z"/>
<path d="M3090 3290 c-176 -38 -374 -124 -530 -231 -74 -50 -109 -87 -265
-271 -553 -653 -712 -832 -1379 -1547 l-218 -234 51 -51 51 -51 383 385 c210
212 642 647 961 968 485 489 844 832 871 832 11 0 -241 -276 -430 -470 -104
-107 -536 -548 -960 -979 -423 -431 -771 -786 -773 -790 -1 -4 20 -29 48 -56
l50 -49 32 30 c18 16 110 102 203 190 643 606 1094 1016 1509 1374 202 175
280 262 360 403 80 141 161 375 181 520 l6 47 -33 -1 c-18 0 -71 -9 -118 -19z"/>
<path d="M1973 1591 l-63 -57 315 -314 315 -315 52 52 52 52 -50 53 c-149 161
-497 527 -525 555 l-34 31 -62 -57z"/>
<path d="M1797 1432 l-58 -59 305 -298 c169 -164 316 -305 327 -313 20 -14 24
-11 75 39 l54 54 -318 318 c-175 174 -321 317 -323 317 -3 0 -31 -26 -62 -58z"/>
<path d="M440 1359 c-93 -39 -131 -159 -81 -257 14 -27 132 -156 302 -329 393
-402 419 -423 508 -423 79 0 143 45 161 112 20 73 -32 138 -111 138 -25 0 -41
-9 -69 -40 -20 -22 -43 -40 -51 -40 -19 0 -585 572 -594 601 -6 19 -1 30 32
59 23 19 46 45 52 57 36 69 -70 155 -149 122z"/>
<path d="M2824 1359 c-40 -12 -64 -39 -71 -82 -5 -32 -1 -40 42 -86 38 -40 45
-54 39 -73 -7 -25 -578 -598 -595 -598 -6 0 -25 15 -43 34 -52 56 -113 60
-162 11 -19 -19 -24 -35 -24 -74 0 -120 140 -183 257 -116 69 40 694 667 723
725 27 54 30 132 7 177 -18 33 -71 83 -90 83 -7 0 -21 2 -32 4 -11 3 -34 1
-51 -5z"/>
<path d="M526 716 c-20 -18 -36 -38 -36 -43 0 -12 164 -173 177 -173 5 0 27
18 48 40 l39 40 -84 85 c-47 47 -90 85 -97 85 -6 0 -28 -15 -47 -34z"/>
<path d="M2677 667 c-48 -45 -87 -85 -87 -89 0 -11 73 -77 85 -78 6 0 48 38
95 85 l84 85 -39 40 c-21 22 -42 40 -45 40 -3 0 -45 -38 -93 -83z"/>
<path d="M387 582 l-37 -38 90 -89 89 -88 40 34 c21 19 40 39 40 44 1 13 -161
175 -175 175 -5 0 -27 -17 -47 -38z"/>
<path d="M2811 534 c-45 -48 -81 -90 -80 -93 0 -3 19 -21 40 -40 l40 -34 89
88 90 89 -37 38 c-20 21 -42 38 -49 38 -7 0 -49 -39 -93 -86z"/>
<path d="M260 455 l-34 -35 84 -85 c47 -47 89 -85 95 -85 6 0 27 16 45 35 l35
36 -86 84 c-47 47 -90 85 -96 85 -5 0 -24 -16 -43 -35z"/>
<path d="M2943 404 l-86 -85 34 -35 c18 -19 38 -34 44 -34 6 0 48 38 95 85
l84 85 -34 35 c-19 19 -38 35 -43 35 -4 0 -47 -39 -94 -86z"/>
<path d="M3067 282 c-116 -116 -117 -117 -110 -156 4 -25 18 -50 39 -72 84
-84 234 -62 309 44 27 39 30 52 30 115 0 82 -20 126 -70 156 -69 42 -71 41
-198 -87z"/>
<path d="M83 370 c-41 -25 -61 -56 -71 -111 -25 -139 66 -253 203 -254 74 0
131 27 157 75 34 64 28 77 -95 198 -121 121 -136 128 -194 92z"/>
</g>
</svg>
