<?xml version="1.0" standalone="no"?>
<!DOCTYPE svg PUBLIC "-//W3C//DTD SVG 20010904//EN"
 "http://www.w3.org/TR/2001/REC-SVG-20010904/DTD/svg10.dtd">
<svg version="1.0" xmlns="http://www.w3.org/2000/svg"
 width="475.000000pt" height="525.000000pt" viewBox="0 0 475.000000 525.000000"
 preserveAspectRatio="xMidYMid meet">
<metadata>
Created by potrace 1.16, written by Peter Selinger 2001-2019
</metadata>
<g transform="translate(0.000000,525.000000) scale(0.100000,-0.100000)"
fill="currentColor" stroke="none">
<path d="M2413 5232 c-145 -52 -223 -188 -223 -391 0 -116 16 -180 71 -288 80
-159 183 -245 459 -383 298 -149 443 -274 553 -480 62 -116 117 -320 117 -437
0 -18 2 -33 4 -33 2 0 38 16 80 36 49 24 107 41 168 51 51 9 95 17 97 19 6 6
-31 158 -61 249 -67 199 -174 373 -322 520 -120 119 -262 213 -499 330 -207
101 -288 158 -344 238 -79 117 -84 276 -11 354 30 32 58 30 58 -3 0 -70 43
-83 97 -29 34 34 35 38 31 93 -5 70 -32 114 -90 143 -57 29 -123 33 -185 11z
m16 -692 c20 -25 54 -62 76 -84 l40 -38 -34 18 c-47 26 -116 106 -145 167 -37
78 -41 111 -5 42 17 -33 48 -80 68 -105z m840 -537 c128 -118 236 -305 266
-463 11 -55 -9 -25 -44 66 -58 150 -175 321 -292 427 -32 30 -59 57 -59 61 0
14 64 -31 129 -91z"/>
<path d="M2027 4288 c-63 -117 -171 -321 -240 -453 -169 -326 -403 -768 -469
-890 -31 -56 -63 -115 -72 -133 l-17 -32 58 0 58 0 67 123 c105 192 764 1446
788 1499 11 23 9 30 -16 62 -16 20 -32 36 -36 36 -3 0 -58 -96 -121 -212z"/>
<path d="M3663 3209 c-119 -20 -238 -91 -303 -180 -36 -50 -70 -138 -77 -201
l-6 -48 200 0 201 0 20 48 c22 52 52 148 52 168 0 26 -124 -30 -203 -90 -26
-20 -47 -33 -47 -31 0 3 9 23 20 44 31 62 102 125 175 157 l66 29 -3 55 c-3
63 -6 64 -95 49z"/>
<path d="M6 2978 c13 -23 87 -112 128 -155 l40 -43 108 0 c59 0 108 3 108 6 0
4 -38 51 -86 105 l-85 99 -110 0 c-85 0 -109 -3 -103 -12z"/>
<path d="M410 2938 c23 -29 61 -76 83 -105 l42 -52 108 -1 107 0 -86 105 -87
105 -104 0 -105 0 42 -52z"/>
<path d="M736 2978 c11 -19 88 -118 126 -161 l33 -38 104 3 103 3 -82 103 -83
102 -104 0 c-81 0 -103 -3 -97 -12z"/>
<path d="M4010 2876 l0 -84 73 -55 c39 -31 88 -70 107 -87 l35 -30 -40 -35
c-22 -19 -70 -59 -107 -88 l-68 -52 3 -85 2 -85 30 3 c114 14 548 197 663 281
81 60 51 99 -154 204 -149 75 -291 133 -419 171 -131 38 -125 41 -125 -58z"/>
<path d="M190 2672 c-5 -2 -10 -26 -10 -53 l0 -49 1906 -2 1907 -3 34 23 c40
28 35 40 -32 72 l-43 21 -1876 -3 c-1032 -2 -1880 -4 -1886 -6z"/>
<path d="M81 2363 c-45 -53 -81 -100 -81 -105 0 -4 49 -8 108 -8 l108 0 82 99
c45 55 82 102 82 105 0 3 -49 6 -109 6 l-110 0 -80 -97z"/>
<path d="M450 2361 c-44 -55 -80 -102 -80 -105 0 -3 45 -6 100 -6 l100 0 77
91 c43 50 82 98 86 105 7 12 -10 14 -97 14 l-105 0 -81 -99z"/>
<path d="M810 2365 c-41 -51 -76 -98 -78 -104 -2 -7 29 -11 95 -11 l99 0 40
43 c41 43 115 132 128 155 6 9 -17 12 -101 11 l-108 0 -75 -94z"/>
<path d="M1230 2455 c0 -6 142 -275 445 -845 78 -146 201 -379 365 -692 57
-109 107 -198 111 -198 3 0 19 19 34 42 l28 42 -59 116 c-76 147 -345 656
-608 1150 l-205 385 -55 3 c-31 2 -56 0 -56 -3z"/>
<path d="M3270 2442 c0 -33 31 -126 62 -184 62 -116 169 -192 319 -225 101
-21 109 -18 109 52 0 51 -2 56 -27 66 -87 31 -173 100 -211 168 l-24 42 65
-44 c35 -24 92 -54 127 -65 l63 -22 -7 46 c-3 24 -18 75 -34 112 l-28 67 -207
3 c-195 2 -207 1 -207 -16z"/>
<path d="M3390 1966 c0 -133 -52 -321 -124 -450 -51 -91 -179 -224 -281 -291
-44 -29 -154 -92 -243 -139 -269 -143 -384 -232 -461 -360 -158 -265 -108
-611 102 -707 99 -45 223 -14 282 70 54 77 36 154 -47 197 -40 21 -44 18 -54
-37 l-9 -51 -34 24 c-55 37 -73 81 -68 163 7 127 82 241 215 328 37 25 148 85
247 135 204 103 296 161 408 257 182 155 321 391 382 644 23 97 36 171 30 171
-54 0 -296 69 -319 91 -20 18 -26 8 -26 -45z m117 -365 c-44 -130 -105 -234
-189 -325 -61 -67 -148 -136 -170 -136 -5 0 27 35 70 78 131 130 202 237 273
417 54 135 66 111 16 -34z m-993 -819 c-53 -49 -104 -114 -144 -184 -17 -32
-34 -58 -36 -58 -5 0 22 73 39 106 22 43 85 113 130 145 55 40 60 36 11 -9z"/>
</g>
</svg>
