<?xml version="1.0" standalone="no"?>
<!DOCTYPE svg PUBLIC "-//W3C//DTD SVG 20010904//EN"
 "http://www.w3.org/TR/2001/REC-SVG-20010904/DTD/svg10.dtd">
<svg version="1.0" xmlns="http://www.w3.org/2000/svg"
 width="282.000000pt" height="320.000000pt" viewBox="0 0 282.000000 320.000000"
 preserveAspectRatio="xMidYMid meet">
<metadata>
Created by potrace 1.16, written by Peter Selinger 2001-2019
</metadata>
<g transform="translate(0.000000,320.000000) scale(0.100000,-0.100000)"
fill="currentColor" stroke="none">
<path d="M990 3190 c-651 -4 -870 -8 -886 -17 -36 -21 -82 -81 -93 -120 -15
-53 -15 -1759 0 -1890 29 -259 143 -475 337 -638 112 -94 254 -178 552 -326
326 -162 395 -190 476 -197 114 -9 172 13 599 223 391 193 523 285 645 447 77
102 133 213 167 331 l27 92 4 593 3 592 -85 0 -85 0 -4 -567 c-4 -649 -4 -641
-88 -812 -44 -89 -64 -118 -138 -191 -47 -48 -118 -107 -157 -133 -70 -46
-543 -286 -714 -362 -133 -60 -149 -59 -320 20 -231 106 -567 281 -671 351
-174 115 -289 264 -346 449 l-28 90 -3 902 c-3 996 -6 945 59 979 28 14 148
16 1173 17 1076 2 1143 1 1169 -16 60 -39 62 -48 65 -319 l3 -248 85 0 84 0 0
302 c0 284 -1 304 -21 344 -13 27 -37 54 -66 73 l-46 31 -246 1 c-135 1 -322
2 -416 3 -93 0 -559 -1 -1035 -4z"/>
<path d="M330 2033 c0 -939 -1 -922 65 -1059 46 -96 132 -187 249 -265 50 -34
235 -133 411 -221 299 -149 323 -160 366 -156 34 4 131 47 370 166 178 88 353
180 389 203 101 66 201 173 244 260 74 153 71 104 71 1059 l0 855 -72 3 -73 3
0 -469 c0 -442 -1 -470 -18 -485 -30 -27 -87 -22 -111 9 -21 26 -21 36 -21
485 l0 459 -70 0 -70 0 0 -259 c0 -257 0 -260 -22 -275 -35 -25 -83 -20 -107
10 -20 25 -21 39 -21 275 l0 249 -70 0 -70 0 0 -468 c0 -442 -1 -470 -18 -485
-30 -27 -87 -22 -111 9 -21 26 -21 36 -21 485 l0 459 -70 0 -70 0 0 -253 c0
-288 -2 -297 -69 -297 -26 0 -44 7 -57 21 -17 19 -19 42 -22 275 l-3 254 -64
0 -65 0 0 -459 c0 -449 0 -459 -21 -485 -26 -33 -79 -36 -109 -6 -19 19 -20
33 -20 485 l0 465 -70 0 -70 0 0 -245 c0 -165 -4 -252 -12 -270 -19 -43 -89
-51 -120 -13 -16 18 -18 47 -18 274 l0 254 -70 0 -70 0 0 -465 c0 -452 -1
-466 -20 -485 -20 -20 -74 -27 -96 -12 -32 21 -34 53 -34 506 l0 456 -70 0
-70 0 0 -847z"/>
</g>
</svg>
