<?xml version="1.0" standalone="no"?>
<!DOCTYPE svg PUBLIC "-//W3C//DTD SVG 20010904//EN"
 "http://www.w3.org/TR/2001/REC-SVG-20010904/DTD/svg10.dtd">
<svg version="1.0" xmlns="http://www.w3.org/2000/svg"
 width="354.000000pt" height="352.000000pt" viewBox="0 0 354.000000 352.000000"
 preserveAspectRatio="xMidYMid meet">
<metadata>
Created by potrace 1.16, written by Peter Selinger 2001-2019
</metadata>
<g transform="translate(0.000000,352.000000) scale(0.100000,-0.100000)"
fill="currentColor" stroke="none">
<path d="M2953 3506 c-22 -16 -35 -62 -48 -173 l-7 -51 -33 14 c-65 27 -84 20
-156 -56 -37 -39 -70 -82 -73 -97 -9 -34 6 -52 263 -325 164 -175 210 -218
230 -218 33 0 123 77 141 120 8 19 11 51 7 83 l-5 53 67 23 c190 65 228 143
149 303 -22 43 -60 92 -122 154 -74 75 -107 99 -176 133 -100 49 -199 64 -237
37z m193 -127 c79 -37 189 -139 237 -220 59 -101 53 -108 -60 -53 -57 27 -96
57 -167 127 -78 77 -136 154 -136 182 0 12 64 -7 126 -36z m42 -309 c37 -27
86 -58 109 -67 24 -10 43 -21 43 -24 0 -10 -38 -18 -118 -25 -40 -4 -72 -10
-72 -15 0 -4 9 -36 20 -71 26 -82 25 -89 -10 -120 l-29 -26 -153 162 c-84 88
-170 181 -191 205 l-39 43 33 34 c18 19 38 34 43 34 6 0 44 -29 84 -65 40 -36
76 -65 79 -65 3 0 2 46 -2 102 l-7 102 72 -77 c39 -42 102 -99 138 -127z"/>
<path d="M2465 2778 c-247 -233 -445 -426 -445 -434 0 -5 11 -22 24 -39 27
-34 11 -42 147 73 47 39 89 72 93 72 3 0 -21 -34 -54 -76 -91 -114 -108 -154
-67 -154 22 0 71 33 178 120 49 40 46 34 -27 -66 -88 -120 -102 -164 -52 -164
15 0 91 68 256 233 217 215 292 297 292 319 0 20 -52 4 -118 -36 -40 -25 -72
-41 -72 -36 0 4 22 27 50 50 27 23 59 54 70 70 19 27 20 28 1 51 -24 30 -41
23 -139 -61 -40 -34 -75 -60 -77 -58 -2 2 30 48 71 102 41 54 74 103 74 110 0
14 -42 56 -56 56 -5 0 -72 -60 -149 -132z"/>
<path d="M1544 2629 c-116 -81 -213 -161 -219 -180 -3 -10 -1 -29 6 -41 11
-22 216 -313 589 -838 92 -129 233 -329 314 -445 190 -272 324 -443 354 -451
34 -9 49 10 36 44 -6 16 -97 158 -203 315 -105 158 -187 287 -182 287 11 0 99
-100 258 -290 153 -184 217 -250 241 -250 25 0 34 23 21 56 -5 15 -114 185
-243 378 -370 559 -366 564 31 37 295 -390 375 -494 431 -553 33 -35 39 -37
76 -31 23 3 43 7 45 9 6 5 -208 295 -949 1289 -119 160 -276 371 -349 470
-131 176 -178 235 -191 235 -4 0 -33 -19 -66 -41z m103 -166 c60 -92 136 -212
147 -233 5 -8 -40 33 -100 93 -157 154 -184 140 -89 -47 25 -49 43 -91 41 -93
-9 -9 -200 232 -194 246 3 10 129 109 139 110 3 1 28 -34 56 -76z m355 -462
c29 -26 33 -35 33 -81 0 -46 -4 -55 -33 -81 -26 -23 -42 -29 -78 -29 -39 0
-51 5 -80 34 -28 28 -34 42 -34 76 0 34 6 48 34 76 29 29 41 34 80 34 36 0 52
-6 78 -29z"/>
<path d="M1882 1958 c-21 -21 -15 -67 12 -79 53 -25 108 24 79 70 -12 20 -74
26 -91 9z"/>
<path d="M2688 2418 c-107 -112 -240 -252 -296 -311 -109 -116 -110 -119 -62
-162 l23 -20 91 96 c50 53 183 193 294 310 112 118 206 220 209 227 6 15 -34
62 -53 62 -6 0 -99 -91 -206 -202z"/>
<path d="M1560 1311 c0 -301 3 -569 6 -595 6 -40 10 -47 28 -44 16 2 24 14 33
50 9 38 43 422 43 487 0 8 2 12 5 9 3 -3 16 -109 30 -237 24 -227 35 -276 58
-269 31 10 46 75 61 266 8 107 16 196 19 198 2 2 9 -47 16 -109 37 -336 45
-367 82 -346 18 9 19 25 19 308 l0 299 -123 168 c-199 274 -267 364 -272 364
-3 0 -5 -247 -5 -549z"/>
<path d="M1390 1753 c-12 -16 -187 -199 -389 -408 -202 -209 -434 -450 -515
-535 -145 -152 -147 -155 -119 -161 80 -18 68 -27 349 253 145 144 264 259
264 256 0 -4 -54 -75 -120 -159 -118 -148 -160 -212 -160 -244 0 -35 48 -9
179 95 56 44 103 80 106 80 3 0 -40 -59 -95 -132 -55 -73 -100 -135 -100 -139
0 -11 112 -15 125 -4 22 20 214 233 369 409 l156 179 0 54 c0 36 -4 53 -12 53
-7 0 -59 -34 -116 -76 -57 -42 -105 -75 -107 -73 -2 3 27 42 65 89 38 46 77
98 86 116 16 29 14 64 -3 64 -13 0 -104 -56 -158 -97 l-50 -38 25 35 c14 19
80 92 147 161 l123 126 0 62 c0 70 -14 79 -50 34z"/>
<path d="M17 532 c-15 -16 -17 -49 -17 -249 0 -212 2 -233 19 -254 l19 -24
1719 0 c1368 0 1723 3 1740 13 39 22 46 78 39 296 -5 166 -9 202 -22 218 -16
17 -81 18 -1749 18 -1665 0 -1733 -1 -1748 -18z m3413 -247 l0 -175 -1665 0
-1665 0 0 170 0 170 243 0 c245 0 531 -10 523 -17 -7 -7 -129 -21 -332 -38
-170 -14 -263 -26 -318 -42 -59 -17 74 -50 274 -69 96 -9 71 -17 -97 -33 -73
-7 -145 -16 -160 -20 -35 -9 -42 -36 -11 -45 83 -22 1127 7 1793 49 127 8 444
26 705 40 545 29 620 34 620 47 0 21 -79 39 -239 55 -94 9 -171 20 -171 24 0
10 346 53 468 58 l32 1 0 -175z m-1000 146 c98 -11 44 -19 -167 -26 -193 -6
-443 3 -443 16 0 4 28 10 63 12 112 6 481 5 547 -2z"/>
</g>
</svg>
