<svg xmlns="http://www.w3.org/2000/svg" viewBox="0 0 2048 2048" preserveAspectRatio="xMidYMid meet" fill="#C9A961"><title>Novus Mundus</title>
<g transform="translate(0.000000,2048.000000) scale(0.100000,-0.100000)"
fill="inherit" stroke="none">
<path d="M13025 15873 c-269 -33 -432 -78 -650 -178 -593 -274 -1154 -935
-1549 -1824 -224 -504 -451 -1285 -560 -1921 -14 -80 -32 -174 -41 -210 -8
-36 -18 -128 -22 -205 -3 -77 -8 -135 -9 -130 -2 6 -13 75 -24 155 -12 80 -30
205 -41 279 -17 119 -63 373 -90 501 -5 25 -14 70 -20 100 -34 177 -213 847
-249 933 -5 12 -35 92 -66 177 -67 184 -165 406 -238 545 -30 55 -73 136 -96
180 -49 93 -168 272 -286 432 -271 367 -568 662 -854 849 -231 152 -500 249
-783 284 -116 14 -416 14 -537 0 -177 -21 -458 -113 -675 -222 -248 -125 -605
-450 -795 -724 -8 -12 -33 -46 -56 -75 -22 -30 -59 -85 -82 -124 -23 -38 -47
-77 -52 -85 -71 -111 -226 -387 -291 -521 -43 -89 -107 -249 -177 -444 -62
-172 -84 -244 -117 -382 -14 -60 -41 -171 -60 -248 -80 -323 -147 -770 -165
-1097 -43 -783 -43 -2573 0 -3356 18 -327 85 -774 165 -1097 19 -77 46 -188
60 -248 33 -138 55 -210 117 -382 70 -195 134 -355 177 -444 65 -134 220 -410
291 -521 5 -8 29 -46 52 -85 23 -38 60 -94 82 -124 23 -29 48 -63 56 -75 190
-274 547 -599 795 -724 217 -109 498 -201 675 -222 121 -14 421 -14 537 0 198
25 428 92 596 175 338 168 710 510 1041 958 118 160 237 339 286 432 23 44 66
125 96 180 73 139 171 361 238 545 31 85 61 165 66 177 36 86 215 756 249 933
6 30 15 75 20 100 27 128 73 382 90 501 11 74 29 199 41 279 11 80 22 150 24
155 1 6 6 -53 9 -130 4 -77 14 -169 22 -205 9 -36 27 -130 41 -210 109 -636
336 -1417 560 -1921 364 -818 868 -1445 1409 -1751 293 -165 568 -243 905
-255 322 -11 618 48 925 184 143 64 235 116 355 202 391 279 612 534 972 1122
172 282 349 676 423 944 9 33 29 103 45 155 25 85 122 498 149 640 86 448 117
736 153 1425 17 336 17 1594 0 1930 -20 395 -31 547 -52 745 -27 255 -53 430
-101 680 -27 142 -124 555 -149 640 -16 52 -36 122 -45 155 -74 268 -251 662
-423 944 -360 588 -581 843 -972 1122 -283 202 -627 334 -975 374 -117 13
-342 18 -420 8z m-690 -308 c-16 -14 -38 -25 -47 -25 -10 0 -40 -13 -66 -30
-27 -16 -55 -30 -63 -30 -8 0 15 18 50 39 36 23 70 37 79 34 10 -4 13 -2 8 5
-5 8 -1 10 10 5 11 -4 15 -3 11 5 -4 6 1 13 10 15 36 9 37 6 8 -18z m-206
-113 c-7 -11 -27 -29 -44 -39 -74 -44 -95 -59 -95 -70 0 -7 -7 -13 -15 -13
-21 0 15 37 75 77 25 17 54 40 64 52 23 25 32 21 15 -7z m-258 -213 c-29 -27
-56 -48 -59 -44 -7 6 88 94 103 95 5 0 -14 -23 -44 -51z m-84 -77 c-10 -10
-17 -23 -17 -28 0 -5 -9 -15 -20 -22 -12 -7 -20 -8 -20 -2 0 5 5 10 12 10 6 0
9 2 6 5 -7 7 33 55 46 55 5 0 2 -8 -7 -18z m-109 -125 c-13 -12 -24 -19 -26
-15 -5 11 31 48 40 42 5 -3 -1 -16 -14 -27z m-78 -84 c-1 -18 -19 -35 -29 -29
-7 5 -17 -6 -26 -26 -8 -18 -14 -29 -15 -24 0 4 -8 0 -17 -11 -28 -30 -11 -3
31 50 34 43 56 59 56 40z m-157 -223 l-7 -25 -6 25 c-8 28 -2 46 11 33 5 -5 5
-20 2 -33z m-187 -260 c-14 -22 -26 -44 -26 -49 0 -5 -7 -11 -15 -15 -8 -3
-15 -12 -15 -20 0 -8 -4 -18 -10 -21 -16 -10 1 26 42 88 21 32 38 64 39 70 0
8 2 8 6 -1 3 -7 -7 -31 -21 -52z m-5636 -333 c0 -1 -24 -25 -52 -52 l-53 -50
50 53 c46 48 55 57 55 49z m8070 -342 c284 -43 590 -133 805 -236 111 -53 325
-183 425 -258 89 -66 336 -306 400 -388 148 -189 256 -382 315 -559 53 -160
75 -263 87 -412 18 -200 -10 -347 -88 -469 -34 -53 -47 -67 -171 -173 -101
-87 -437 -180 -796 -220 -344 -39 -498 -42 -2404 -47 -1810 -5 -1863 -5 -1863
13 0 55 35 309 61 446 59 313 141 566 256 796 109 217 197 355 334 527 268
336 557 580 881 745 221 112 457 187 728 231 200 33 279 38 575 34 241 -3 304
-7 455 -30z m-6056 -15 c99 -14 364 -65 431 -83 28 -8 97 -31 155 -52 466
-167 845 -470 1188 -948 263 -366 452 -847 562 -1427 17 -91 35 -182 40 -203
l8 -39 -1851 5 c-1855 5 -1998 7 -2302 42 -370 43 -521 93 -716 240 -48 35
-110 90 -139 122 -59 64 -120 183 -146 282 -35 138 -34 408 2 571 20 92 74
249 107 310 13 25 43 82 67 127 89 169 283 397 460 539 355 286 760 445 1295
508 72 9 144 18 160 20 56 8 599 -3 679 -14z m-2422 -104 c-17 -19 -33 -44
-37 -55 -3 -12 -11 -21 -16 -21 -6 0 -2 14 8 32 22 40 65 90 71 83 3 -2 -9
-20 -26 -39z m3544 -202 c19 -9 34 -20 34 -24 0 -4 9 -10 20 -13 11 -3 20 -10
20 -16 0 -14 -26 -1 -84 41 -44 32 -40 36 10 12z m126 -107 c-2 -5 -12 -1 -23
9 -10 9 -16 20 -13 25 6 10 42 -23 36 -34z m98 -80 c0 -5 -20 8 -45 29 -25 20
-45 38 -45 41 0 7 89 -62 90 -70z m136 -118 c16 -14 48 -48 71 -75 77 -91 98
-112 120 -123 14 -7 20 -17 17 -26 -4 -10 -1 -14 7 -12 8 2 11 2 6 -1 -10 -5
46 -77 97 -125 23 -21 35 -36 29 -32 -7 3 -13 3 -13 0 0 -11 27 -34 33 -29 3
3 8 1 12 -5 15 -25 -25 -8 -47 19 -12 16 -43 55 -68 86 -74 94 -243 284 -319
359 -39 38 -71 73 -71 77 0 4 22 -14 49 -40 27 -26 62 -59 77 -73z m-4180 28
c-18 -45 -45 -94 -46 -84 0 11 50 117 56 117 2 0 -2 -15 -10 -33z m5825 -209
c-21 -46 -41 -92 -45 -102 -3 -10 -9 -17 -11 -14 -7 6 78 197 87 198 4 0 -10
-37 -31 -82z m-5915 6 c-13 -32 -32 -85 -42 -116 -18 -60 -29 -71 -38 -40 -2
9 -2 0 1 -21 5 -38 -20 -127 -37 -127 -4 0 -6 -8 -3 -18 2 -10 -5 -56 -16
-103 -60 -251 -86 -502 -79 -758 4 -162 0 -187 -17 -88 -3 21 -9 36 -13 33
-14 -8 -11 241 3 359 27 216 37 280 42 295 3 8 7 26 9 40 2 14 11 59 20 100 9
41 17 80 18 85 13 75 32 133 40 125 8 -5 11 7 12 40 0 27 6 56 13 64 8 9 10
16 6 16 -4 0 -3 6 3 13 5 6 13 27 17 45 6 31 8 32 21 15 12 -16 13 -15 14 19
0 47 10 74 20 58 5 -9 10 -6 15 9 4 13 9 21 11 18 2 -2 -7 -30 -20 -63z m5799
-271 c-40 -110 -64 -169 -65 -157 0 14 31 106 40 119 4 6 13 28 20 50 14 44
19 55 25 55 3 0 -6 -30 -20 -67z m-1135 -22 c1 14 31 -34 34 -55 1 -6 8 -22
15 -36 10 -21 9 -21 -11 4 -13 17 -33 48 -46 70 -13 23 -16 32 -8 22 12 -15
16 -16 16 -5z m133 -222 c-1 -4 6 -18 17 -32 12 -14 26 -41 32 -59 6 -18 14
-35 17 -38 4 -3 17 -30 30 -60 13 -30 26 -62 30 -70 4 -8 16 -42 26 -75 11
-33 26 -66 33 -73 6 -7 12 -22 12 -32 0 -10 5 -22 10 -25 6 -3 10 -20 10 -38
0 -43 -13 -25 -39 57 -38 119 -164 400 -216 481 l-19 30 30 -30 c16 -16 29
-33 27 -36z m6111 -184 c4 -27 0 -19 -14 25 -10 36 -19 67 -19 70 2 15 28 -62
33 -95z m67 -432 c0 -67 -3 -129 -8 -137 -4 -8 -8 58 -8 150 0 98 3 153 8 136
4 -15 8 -82 8 -149z m-11171 -270 c0 -16 2 -46 5 -68 4 -37 3 -37 -9 10 -17
62 -19 85 -6 85 6 0 10 -12 10 -27z m5354 -66 c3 -37 7 -71 10 -75 3 -5 14
-75 26 -157 12 -83 24 -159 26 -170 3 -11 7 -38 9 -60 4 -38 4 -38 -5 -10 -6
17 -17 68 -24 115 -8 47 -25 137 -39 200 -15 75 -22 135 -19 173 2 32 5 57 7
55 2 -2 6 -34 9 -71z m-5503 -704 c2 -41 -2 -67 -10 -76 -4 -4 -8 18 -8 48 0
55 16 80 18 28z m3 -135 c0 -24 -2 -60 -3 -80 -1 -51 -20 -49 -19 2 0 22 4 40
8 40 4 0 4 18 0 40 -5 28 -4 40 4 40 8 0 12 -16 10 -42z m9 -274 c3 -3 3 -12
0 -20 -4 -11 -9 -12 -19 -3 -8 6 -14 15 -14 20 0 10 24 12 33 3z m-7 -111
c-26 -14 -31 -10 -16 16 9 17 13 19 24 9 12 -11 10 -15 -8 -25z m11 -149 c-10
-10 -14 -10 -24 4 -20 25 -15 33 11 21 19 -9 22 -14 13 -25z m-3 -86 c-7 -10
-34 -10 -34 0 0 4 5 13 12 20 9 9 14 9 19 0 4 -7 5 -16 3 -20z m-13 -195 c1
-21 3 -57 3 -80 2 -27 -2 -43 -10 -43 -8 0 -9 12 -4 40 4 22 4 40 0 40 -4 0
-8 18 -8 40 -1 51 18 53 19 3z m-1 -168 c4 -39 0 -75 -9 -75 -5 0 -8 25 -8 55
1 51 13 65 17 20z m5509 -292 c-4 -21 -22 -112 -39 -203 -110 -580 -299 -1061
-562 -1427 -343 -478 -722 -781 -1188 -948 -137 -50 -176 -60 -357 -95 -247
-48 -318 -54 -633 -55 -299 0 -410 9 -650 51 -415 74 -778 235 -1080 478 -177
142 -371 370 -460 539 -24 45 -54 102 -67 127 -33 61 -87 218 -107 310 -23
102 -34 291 -25 411 19 249 104 409 292 552 189 145 323 196 616 237 379 52
549 56 2592 58 l1677 2 -9 -37z m65 -21 c-9 -34 -8 -29 -33 -202 -12 -79 -24
-153 -27 -164 -6 -19 -9 -39 -14 -116 -2 -27 -5 -20 -10 25 -5 46 -1 87 17
175 14 63 31 151 38 195 20 120 29 153 33 132 2 -10 0 -31 -4 -45z m4236 39
c562 -35 1016 -133 1153 -251 124 -106 137 -120 171 -173 78 -122 106 -269 88
-469 -12 -149 -34 -252 -87 -412 -59 -177 -167 -370 -315 -559 -64 -82 -311
-322 -400 -388 -100 -75 -314 -205 -425 -258 -216 -103 -519 -192 -810 -237
-168 -26 -201 -28 -500 -28 -285 -1 -336 2 -465 22 -308 49 -557 125 -788 242
-324 165 -613 409 -881 745 -307 384 -490 794 -590 1323 -26 137 -61 391 -61
446 0 18 53 18 1863 13 1202 -3 1928 -9 2047 -16z m-9656 -509 c-4 -34 -11
-62 -15 -62 -11 0 -11 5 2 74 15 72 21 67 13 -12z m-22 -256 c-7 -253 20 -505
79 -755 11 -47 18 -93 16 -103 -3 -10 -1 -18 3 -18 17 0 42 -89 37 -127 -3
-21 -3 -30 -1 -20 3 9 9 17 12 17 4 0 23 -46 43 -103 20 -56 39 -111 43 -122
5 -13 2 -11 -8 5 -10 16 -15 19 -16 10 -1 -35 -20 16 -20 55 -1 36 -2 38 -14
22 -13 -17 -15 -16 -21 15 -4 18 -12 39 -17 46 -6 6 -7 12 -3 12 4 0 2 7 -6
16 -7 8 -13 37 -13 64 -1 33 -4 45 -12 40 -8 -8 -27 50 -40 125 -1 6 -9 44
-18 85 -9 41 -18 86 -20 100 -2 14 -6 32 -9 40 -5 15 -15 79 -42 295 -14 116
-17 367 -3 359 3 -2 9 10 13 28 3 18 8 45 11 61 3 15 7 27 8 27 2 0 1 -78 -2
-174z m11189 -49 c0 -67 -4 -134 -8 -149 -5 -17 -8 38 -8 136 0 92 4 158 8
150 5 -8 8 -70 8 -137z m-5970 -150 c-6 -6 -11 -19 -11 -28 0 -10 -6 -24 -12
-31 -7 -7 -22 -40 -33 -73 -10 -33 -22 -67 -26 -75 -4 -8 -17 -40 -30 -70 -13
-30 -26 -57 -30 -60 -3 -3 -11 -20 -17 -38 -6 -18 -20 -45 -32 -59 -11 -14
-18 -28 -17 -32 2 -3 -11 -19 -27 -36 l-30 -30 19 30 c50 78 175 356 215 475
31 95 33 99 38 66 2 -16 -1 -33 -7 -39z m5894 -323 c-22 -76 -27 -65 -7 14 9
34 18 58 20 53 2 -6 -4 -36 -13 -67z m-5100 -387 c14 -38 21 -66 16 -63 -5 3
-12 18 -16 33 -3 16 -13 42 -21 58 -19 42 -44 115 -44 129 1 12 25 -46 65
-157z m-1087 111 c-6 -13 -13 -28 -14 -34 -3 -21 -33 -69 -34 -55 0 11 -4 10
-16 -5 -22 -27 -7 2 34 64 34 53 53 71 30 30z m-62 -125 c-4 -5 -9 -6 -11 -4
-4 6 -35 -25 -35 -34 0 -3 6 -3 13 0 6 4 -6 -11 -29 -32 -51 -48 -107 -120
-97 -125 5 -3 2 -3 -6 -1 -8 2 -11 -2 -7 -12 3 -9 -3 -19 -17 -26 -22 -11 -43
-32 -120 -123 -23 -27 -55 -61 -71 -75 -15 -14 -50 -47 -77 -73 -27 -26 -49
-44 -49 -40 0 4 32 39 71 77 76 75 245 265 319 359 25 31 56 70 68 86 13 17
31 30 40 30 8 0 12 -3 8 -7z m1224 -155 c0 -5 18 -48 39 -94 22 -46 37 -84 33
-84 -4 0 -25 41 -47 91 -50 114 -50 113 -36 105 6 -4 11 -12 11 -18z m-5784
-305 c8 -18 12 -33 10 -33 -6 0 -56 106 -56 117 1 10 28 -39 46 -84z m4043
-96 c-2 -2 -24 -18 -49 -36 l-45 -33 45 40 c25 22 47 38 49 36 2 -2 2 -5 0 -7z
m-107 -96 c-23 -24 -38 -14 -16 10 9 10 20 16 25 13 5 -2 1 -13 -9 -23z m-47
-40 c-3 -6 -13 -11 -21 -11 -8 0 -14 -4 -14 -9 0 -9 -69 -45 -75 -39 -2 2 22
20 52 41 54 35 73 41 58 18z m-3645 -200 c6 -16 22 -39 36 -52 13 -12 24 -27
24 -33 0 -15 -51 42 -73 82 -10 17 -14 32 -9 32 5 0 15 -13 22 -29z m395 -461
c27 -27 47 -50 44 -50 -3 0 -27 23 -54 50 -27 28 -47 50 -44 50 3 0 27 -22 54
-50z m5625 -296 c0 -8 7 -17 15 -20 8 -4 15 -10 15 -16 0 -5 11 -26 25 -46 14
-20 25 -43 24 -52 0 -13 -1 -13 -7 0 -4 8 -23 40 -43 70 -39 60 -55 95 -39 85
6 -3 10 -13 10 -21z m244 -375 c-11 -18 -21 1 -16 28 5 27 5 27 14 4 4 -13 5
-27 2 -32z m86 -113 c1 5 7 -6 15 -23 9 -21 19 -31 28 -27 14 5 33 -24 22 -34
-8 -8 -38 23 -74 76 -18 26 -23 36 -12 23 12 -13 21 -19 21 -15z m163 -189
c-6 -9 -43 27 -43 42 0 5 11 0 24 -12 13 -12 22 -25 19 -30z m77 -73 c0 -6 7
-17 15 -24 9 -7 13 -15 10 -18 -2 -3 -16 7 -29 21 -13 14 -21 28 -18 31 3 3 0
6 -6 6 -7 0 -12 5 -12 10 0 6 8 5 20 -2 11 -7 20 -18 20 -24z m102 -104 c29
-27 49 -50 45 -50 -11 0 -107 83 -107 93 0 13 9 7 62 -43z m118 -102 c0 -7 15
-22 32 -33 18 -11 46 -28 62 -38 32 -20 55 -46 56 -61 0 -6 -15 4 -32 20 -18
17 -49 41 -68 54 -51 34 -85 70 -65 70 8 0 15 -6 15 -12z m232 -168 c26 -16
56 -30 66 -30 9 0 31 -12 47 -26 19 -16 23 -23 12 -20 -10 3 -23 6 -28 6 -6 0
-7 5 -3 12 5 8 2 9 -10 5 -11 -5 -15 -3 -10 5 5 7 2 9 -8 5 -9 -3 -43 11 -79
34 -35 21 -58 39 -50 39 8 0 36 -13 63 -30z"/>
</g>
</svg>
