<svg xmlns="http://www.w3.org/2000/svg" xmlns:xlink="http://www.w3.org/1999/xlink" width="16" height="18" viewBox="0 0 16 18">
  <defs>
    <clipPath id="clip-path">
      <rect width="16" height="18" fill="currentColor"/>
    </clipPath>
  </defs>
  <g transform="translate(0.785 0.169)">
    <g transform="translate(-0.785 -0.169)" clip-path="url(#clip-path)">
      <path d="M.74,17.134a.742.742,0,0,0,.74.745H13.321a.742.742,0,0,0,.74-.745V4.47H.74Zm9.621-10.8c0-.372,0-.372.37-.372h.74c.37,0,.37,0,.37.372v9.684c0,.372,0,.372-.37.372h-.74c-.37,0-.37,0-.37-.372Zm-3.7,0c0-.372,0-.372.37-.372h.74c.37,0,.37,0,.37.372v9.684c0,.372,0,.372-.37.372h-.74c-.37,0-.37,0-.37-.372Zm-3.7,0c0-.372,0-.372.37-.372h.74c.37,0,.37,0,.37.372v9.684c0,.372,0,.372-.37.372H3.33c-.37,0-.37,0-.37-.372Zm11.1-4.842h-3.7V.745A.742.742,0,0,0,9.621,0H5.181a.742.742,0,0,0-.74.745V1.49H.74A.742.742,0,0,0,0,2.235v1.49H14.8V2.235a.742.742,0,0,0-.74-.745m-4.44,0H5.181V.745h4.44Z" transform="translate(0.709 0.121)" fill="currentColor"/>
    </g>
  </g>
</svg>
