<svg xmlns="http://www.w3.org/2000/svg" xmlns:xlink="http://www.w3.org/1999/xlink" width="20.209" height="21.896" viewBox="0 0 20.209 21.896">
  <defs>
    <clipPath id="clip-path">
      <rect width="20.209" height="21.896" fill="currentColor"/>
    </clipPath>
  </defs>
  <g clip-path="url(#clip-path)">
    <path d="M18.978,1923.8H.422a.422.422,0,0,1,0-.844H18.978a.422.422,0,0,1,0,.844" transform="translate(0 -1901.903)" fill="currentColor"/>
    <path d="M1300.22,2.758,1297.833.371a1.265,1.265,0,0,0-1.788,0l-1.491,1.491.6.6,2.982,2.982.6.6,1.491-1.491a1.265,1.265,0,0,0,0-1.788" transform="translate(-1280.381 0)" fill="currentColor"/>
    <path d="M20.12,227.879,17.139,224.9l-.6-.6L4.912,235.935s-.008.008-.013.013a.411.411,0,0,0-.072.11l-.013.025s0,.008-.008.017l-1.788,5.365a.42.42,0,0,0,.4.557A.526.526,0,0,0,3.554,242l5.364-1.788c.008,0,.013-.008.017-.008l.025-.013a.411.411,0,0,0,.11-.072s.013-.008.013-.013l11.634-11.629Zm-14.8,12.64L4.5,239.7l.894-2.686,2.615,2.615Z" transform="translate(-2.964 -221.845)" fill="currentColor"/>
  </g>
</svg>
