<svg xmlns="http://www.w3.org/2000/svg" xmlns:xlink="http://www.w3.org/1999/xlink" width="110" height="99" viewBox="0 0 110 99">
  <defs>
    <linearGradient id="linear-gradient" x1="1" y1="0.5" x2="0" y2="0.5" gradientUnits="objectBoundingBox">
      <stop offset="0" stop-color="#dc2626"/>
      <stop offset="1" stop-color="#ef4444"/>
    </linearGradient>
  </defs>
  <path d="M95.417,99H14.584A14.563,14.563,0,0,1,1.949,77.156L42.366,7.282a14.6,14.6,0,0,1,25.27,0l40.417,69.874A14.563,14.563,0,0,1,95.417,99M55,6.29a8.315,8.315,0,0,0-7.178,4.137L7.406,80.3a8.273,8.273,0,0,0,7.178,12.41H95.417a8.273,8.273,0,0,0,7.178-12.41L62.179,10.426A8.315,8.315,0,0,0,55,6.29m4.934,57.219a2.613,2.613,0,0,1-2.611,2.466H52.678a2.613,2.613,0,0,1-2.611-2.466L48.143,28.8a2.612,2.612,0,0,1,2.611-2.754h8.492A2.612,2.612,0,0,1,61.858,28.8ZM55,70a5.756,5.756,0,1,0,5.766,5.756A5.761,5.761,0,0,0,55,70" transform="translate(-0.001)" fill="url(#linear-gradient)"/>
</svg>
