<svg xmlns="http://www.w3.org/2000/svg" xmlns:xlink="http://www.w3.org/1999/xlink" width="49.001" height="49.002" viewBox="0 0 49.001 49.002">
  <defs>
    <linearGradient id="linear-gradient" x1="1" y1="0.5" x2="0" y2="0.5" gradientUnits="objectBoundingBox">
      <stop offset="0" stop-color="#d97706"/>
      <stop offset="1" stop-color="#fbbf24"/>
    </linearGradient>
  </defs>
  <path d="M1879.177-9993.177A24.332,24.332,0,0,1,1872-10010.5a24.332,24.332,0,0,1,7.178-17.324A24.33,24.33,0,0,1,1896.5-10035a24.332,24.332,0,0,1,17.324,7.178A24.332,24.332,0,0,1,1921-10010.5a24.332,24.332,0,0,1-7.177,17.322A24.332,24.332,0,0,1,1896.5-9986,24.33,24.33,0,0,1,1879.177-9993.177ZM1875-10010.5a21.523,21.523,0,0,0,21.5,21.5,21.526,21.526,0,0,0,21.5-21.5,21.525,21.525,0,0,0-21.5-21.5A21.522,21.522,0,0,0,1875-10010.5Zm17.282,11.842a2.28,2.28,0,0,1-.72-1.723,5.893,5.893,0,0,1,.3-1.645l1.017-3.5a.052.052,0,0,0,.005-.02l.793-2.745h0l1.03-3.571a6.226,6.226,0,0,0,.257-1.267.257.257,0,0,0-.078-.159.19.19,0,0,0-.113-.075.636.636,0,0,0-.416.176,6.529,6.529,0,0,0-1.733,1.979.075.075,0,0,1-.008.013s0,.006-.005.008l-.028.046s-.005,0-.005.007-.028.035-.045.056c0,0,0,.008-.005.01-.02.023-.04.046-.063.068l-.013.015a.913.913,0,0,1-.169.134l-.018.01a.743.743,0,0,1-.1.046.04.04,0,0,0-.015,0,.337.337,0,0,1-.106.016l-.01,0-.008,0a.1.1,0,0,1-.028,0,.265.265,0,0,1-.048,0l-.03-.008a.233.233,0,0,1-.053-.02.11.11,0,0,1-.028-.011.744.744,0,0,1-.083-.045.653.653,0,0,1-.139-.74c1.718-2.987,3.591-4.5,5.566-4.5a2.639,2.639,0,0,1,1.889.681,2.281,2.281,0,0,1,.72,1.725,5.9,5.9,0,0,1-.3,1.643l-1.017,3.5a.208.208,0,0,1-.005.021l-.793,2.748h0l-1.03,3.568a6.257,6.257,0,0,0-.257,1.267.256.256,0,0,0,.078.158c.033.036.076.076.113.076a.642.642,0,0,0,.416-.174,6.562,6.562,0,0,0,1.733-1.982l.008-.013s0,0,.005-.007l.03-.043,0-.008a.678.678,0,0,1,.048-.061s0,0,0,0c.02-.022.04-.048.065-.073a.028.028,0,0,0,.008-.01.988.988,0,0,1,.176-.139.016.016,0,0,0,.01,0,.388.388,0,0,1,.108-.045.008.008,0,0,1,.008,0,.42.42,0,0,1,.111-.018h.013a.212.212,0,0,1,.035,0,.3.3,0,0,1,.04.008.092.092,0,0,1,.035.008.311.311,0,0,1,.048.018.182.182,0,0,1,.03.01.7.7,0,0,1,.083.046.648.648,0,0,1,.139.74c-1.718,2.987-3.591,4.5-5.566,4.5A2.632,2.632,0,0,1,1892.283-9998.657Zm3.682-21.631a2.739,2.739,0,0,1,2.738-2.737,2.737,2.737,0,0,1,2.735,2.737,2.737,2.737,0,0,1-2.735,2.737A2.739,2.739,0,0,1,1895.965-10020.288Z" transform="translate(-1871.999 10035.001)" fill="url(#linear-gradient)"/>
</svg>
