<svg xmlns="http://www.w3.org/2000/svg" width="32" height="32" viewBox="0 0 32 32">
  <path d="M-1314.1-362.156l-6.643-6.743-.047-.05a13.4,13.4,0,0,1-8.479,3,13.434,13.434,0,0,1-9.633-4.049,13.844,13.844,0,0,1-3.99-9.777,13.843,13.843,0,0,1,3.99-9.776,13.433,13.433,0,0,1,9.633-4.049,13.437,13.437,0,0,1,9.633,4.049,13.843,13.843,0,0,1,3.99,9.776,13.867,13.867,0,0,1-2.556,8.068q.06.051.117.109l6.643,6.743a1.926,1.926,0,0,1,0,2.7,1.86,1.86,0,0,1-1.329.558A1.861,1.861,0,0,1-1314.1-362.156Zm-25.974-17.617a10.9,10.9,0,0,0,10.8,10.966,10.9,10.9,0,0,0,10.8-10.966,10.9,10.9,0,0,0-10.8-10.965A10.9,10.9,0,0,0-1340.077-379.772Z" transform="translate(1342.895 393.598)" fill="currentColor"/>
</svg>
