<svg xmlns="http://www.w3.org/2000/svg" xmlns:xlink="http://www.w3.org/1999/xlink" width="37.405" height="40.414" viewBox="0 0 37.405 40.414">
  <defs>
    <clipPath id="clip-path">
      <rect width="37.405" height="40.414" fill="currentColor"/>
    </clipPath>
  </defs>
  <g clip-path="url(#clip-path)">
    <path d="M29.782,25.163a7.611,7.611,0,0,0-5.866,2.76L14.81,22.754a7.61,7.61,0,0,0,0-5.093l9.105-5.172A7.615,7.615,0,1,0,22.6,10.171l-9.105,5.172a7.624,7.624,0,1,0,0,9.73l9.106,5.17a7.623,7.623,0,1,0,7.186-5.079m0-22.5a4.957,4.957,0,1,1-4.956,4.956,4.962,4.962,0,0,1,4.956-4.956M7.626,25.163a4.956,4.956,0,1,1,4.956-4.956,4.963,4.963,0,0,1-4.956,4.956M29.782,37.746a4.957,4.957,0,1,1,4.956-4.956,4.962,4.962,0,0,1-4.956,4.956" fill="currentColor"/>
  </g>
</svg>
