<svg id="solana_illustration" data-name="solana illustration" xmlns="http://www.w3.org/2000/svg" xmlns:xlink="http://www.w3.org/1999/xlink" width="133.9" height="116.399" viewBox="0 0 133.9 116.399">
  <defs>
    <linearGradient id="linear-gradient" x1="1" y1="0.5" x2="0" y2="0.5" gradientUnits="objectBoundingBox">
      <stop offset="0" stop-color="#ffd52e"/>
      <stop offset="1" stop-color="#cb0000"/>
    </linearGradient>
    <clipPath id="clip-path">
      <path id="Path_7427" data-name="Path 7427" d="M9.213.467A1.43,1.43,0,0,0,8.921.5a1.3,1.3,0,0,0-.268.087,1.212,1.212,0,0,0-.237.14,1.181,1.181,0,0,0-.2.191L2.11,8.364a.646.646,0,0,0-.146.413.864.864,0,0,0,.121.432.988.988,0,0,0,.324.339.857.857,0,0,0,.464.136l36.751-.171a1.349,1.349,0,0,0,.283-.031,1.225,1.225,0,0,0,.259-.087,1.15,1.15,0,0,0,.227-.141,1.131,1.131,0,0,0,.189-.191l5.7-7.309a.6.6,0,0,0,.073-.12A.609.609,0,0,0,46.4,1.5a.665.665,0,0,0,.013-.136.758.758,0,0,0-.013-.138v0a.911.911,0,0,0-.106-.28A1.007,1.007,0,0,0,46.1.706a.923.923,0,0,0-.262-.169.8.8,0,0,0-.311-.064Z" transform="translate(-0.564 -0.465)" fill="#03050e" stroke="rgba(0,0,0,0)" stroke-width="1"/>
    </clipPath>
    <clipPath id="clip-path-2">
      <path id="Path_7428" data-name="Path 7428" d="M9.1.583a1.43,1.43,0,0,0-.288.025,1.288,1.288,0,0,0-.265.08,1.186,1.186,0,0,0-.234.133,1.135,1.135,0,0,0-.2.182L2.063,8.141a.612.612,0,0,0-.146.4.833.833,0,0,0,.118.42.984.984,0,0,0,.32.334.866.866,0,0,0,.458.139l36.332.358a1.357,1.357,0,0,0,.28-.026,1.218,1.218,0,0,0,.256-.081,1.126,1.126,0,0,0,.225-.133,1.089,1.089,0,0,0,.187-.182L45.753,2.36a.569.569,0,0,0,.115-.241.631.631,0,0,0,.014-.131.724.724,0,0,0-.013-.134v0a.883.883,0,0,0-.1-.273,1,1,0,0,0-.191-.237.928.928,0,0,0-.259-.168.81.81,0,0,0-.307-.066Z" transform="translate(-0.557 -0.459)" fill="#03050e" stroke="rgba(0,0,0,0)" stroke-width="1"/>
    </clipPath>
    <clipPath id="clip-path-3">
      <path id="Path_7429" data-name="Path 7429" d="M1.321.468A.647.647,0,0,0,.907.6.6.6,0,0,0,.7.93a.75.75,0,0,0,.022.422A.934.934,0,0,0,1,1.757L9.566,9.129a1.944,1.944,0,0,0,.263.191,1.868,1.868,0,0,0,.284.141,1.733,1.733,0,0,0,.3.087,1.58,1.58,0,0,0,.3.03l36.24.1a.634.634,0,0,0,.286-.063.536.536,0,0,0,.2-.167.606.606,0,0,0,.1-.239.738.738,0,0,0,0-.278v0a.832.832,0,0,0-.039-.137.89.89,0,0,0-.065-.135.952.952,0,0,0-.091-.129,1.038,1.038,0,0,0-.118-.12L38.835,1.182A1.937,1.937,0,0,0,38.578,1,1.838,1.838,0,0,0,38.3.857a1.692,1.692,0,0,0-.288-.086A1.52,1.52,0,0,0,37.722.74Z" transform="translate(-0.561 -0.462)" fill="#03050e" stroke="rgba(0,0,0,0)" stroke-width="1"/>
    </clipPath>
  </defs>
  <path id="Ellipse_10" data-name="Ellipse 10" d="M57.231,1.95A64.11,64.11,0,0,1,79.4,6.827a73.99,73.99,0,0,1,34.276,29.058,65.268,65.268,0,0,1,8.552,21.147,53.5,53.5,0,0,1,.21,21.574,45.121,45.121,0,0,1-8.1,18.191A43.838,43.838,0,0,1,98.94,109.619a50.473,50.473,0,0,1-21.516,5.215,62.664,62.664,0,0,1-23.742-4.151,72.75,72.75,0,0,1-21.17-12.518A73.314,73.314,0,0,1,16.59,79.325,63.942,63.942,0,0,1,8.4,56.457,51.586,51.586,0,0,1,9.763,34.162,43.97,43.97,0,0,1,36.069,5.447,52.353,52.353,0,0,1,57.231,1.95Z" transform="translate(0 0)" fill="#fff" opacity="0.3"/>
  <path id="Ellipse_11" data-name="Ellipse 11" d="M47.984,1.418a53.7,53.7,0,0,1,18.7,4.051A62.089,62.089,0,0,1,95.631,30a54.684,54.684,0,0,1,7.159,17.856,44.749,44.749,0,0,1,.079,18.154,37.77,37.77,0,0,1-6.916,15.224,36.806,36.806,0,0,1-12.99,10.648,42.464,42.464,0,0,1-18.035,4.252,52.684,52.684,0,0,1-19.813-3.541,61.079,61.079,0,0,1-17.637-10.46,61.547,61.547,0,0,1-13.29-15.692A53.749,53.749,0,0,1,7.281,47.375,43.4,43.4,0,0,1,8.313,28.713,36.871,36.871,0,0,1,30.2,4.459,43.79,43.79,0,0,1,47.984,1.418Z" transform="translate(10.785 9.131)" opacity="0.3" fill="url(#linear-gradient)"/>
  <path id="Ellipse_9" data-name="Ellipse 9" d="M37.732.923A42.187,42.187,0,0,1,52.543,4.074,48.87,48.87,0,0,1,75.485,23.515,42.968,42.968,0,0,1,81.1,37.668,35.1,35.1,0,0,1,81.079,52a29.652,29.652,0,0,1-5.547,11.947,28.992,28.992,0,0,1-10.288,8.284,33.523,33.523,0,0,1-14.177,3.239,41.554,41.554,0,0,1-15.5-2.836A48.1,48.1,0,0,1,21.8,64.442a48.465,48.465,0,0,1-10.4-12.25,42.387,42.387,0,0,1-5.462-14.9A34.264,34.264,0,0,1,6.647,22.64,29,29,0,0,1,23.71,3.412,34.345,34.345,0,0,1,37.732.923Z" transform="translate(22.763 19.272)" fill="#fff"/>
  <g id="Group_20919" data-name="Group 20919" transform="translate(40.978 38.534)">
    <g id="Group_20914" data-name="Group 20914" transform="translate(4.565 27.328)">
      <g id="Group_20913" data-name="Group 20913" clip-path="url(#clip-path)">
        <path id="Rectangle_6976" data-name="Rectangle 6976" d="M.549.465,46.494.474l1.714,9L2.089,9.689Z" transform="translate(-0.805 -0.465)" fill="#03050e" stroke="rgba(0,0,0,0)" stroke-width="1"/>
      </g>
    </g>
    <g id="Group_20916" data-name="Group 20916">
      <g id="Group_20915" data-name="Group 20915" clip-path="url(#clip-path-2)">
        <path id="Rectangle_6977" data-name="Rectangle 6977" d="M.542.459l45.425.661,1.667,8.755-45.6-.449Z" transform="translate(-0.795 -0.462)" fill="#03050e" stroke="rgba(0,0,0,0)" stroke-width="1"/>
      </g>
    </g>
    <g id="Group_20918" data-name="Group 20918" transform="translate(2.252 13.481)">
      <g id="Group_20917" data-name="Group 20917" clip-path="url(#clip-path-3)">
        <path id="Rectangle_6978" data-name="Rectangle 6978" d="M.546.462,46.227.8l1.69,8.876L2.064,9.556Z" transform="translate(-0.8 -0.464)" fill="#03050e" stroke="rgba(0,0,0,0)" stroke-width="1"/>
      </g>
    </g>
  </g>
</svg>
