<svg xmlns="http://www.w3.org/2000/svg" xmlns:xlink="http://www.w3.org/1999/xlink" width="49" height="49" viewBox="0 0 49 49">
  <defs>
    <linearGradient id="linear-gradient" x1="1" y1="0.5" x2="0" y2="0.5" gradientUnits="objectBoundingBox">
      <stop offset="0" stop-color="#16a34a"/>
      <stop offset="1" stop-color="#22c55e"/>
    </linearGradient>
  </defs>
  <path d="M1859.176-1440.176A24.336,24.336,0,0,1,1852-1457.5a24.337,24.337,0,0,1,7.176-17.324A24.337,24.337,0,0,1,1876.5-1482a24.34,24.34,0,0,1,17.324,7.177A24.343,24.343,0,0,1,1901-1457.5a24.34,24.34,0,0,1-7.176,17.324A24.339,24.339,0,0,1,1876.5-1433,24.336,24.336,0,0,1,1859.176-1440.176ZM1855-1457.5a21.523,21.523,0,0,0,21.5,21.5,21.524,21.524,0,0,0,21.5-21.5,21.525,21.525,0,0,0-21.5-21.5A21.524,21.524,0,0,0,1855-1457.5Zm17.757,9.313-1.414-1.414-5.656-5.657a2.5,2.5,0,0,1,0-3.535,2.5,2.5,0,0,1,3.535,0l5.3,5.3,10.253-10.253a2.5,2.5,0,0,1,3.536,0,2.5,2.5,0,0,1,0,3.536l-12.02,12.02a2.493,2.493,0,0,1-1.768.732A2.493,2.493,0,0,1,1872.757-1448.186Z" transform="translate(-1852 1482)" fill="url(#linear-gradient)"/>
</svg>
